<?xml version="1.0" standalone="no"?>
<!DOCTYPE svg PUBLIC "-//W3C//DTD SVG 1.1//EN" "http://www.w3.org/Graphics/SVG/1.1/DTD/svg11.dtd" >
<svg xmlns="http://www.w3.org/2000/svg" xmlns:xlink="http://www.w3.org/1999/xlink" version="1.1">
<metadata>
Created by FontForge 20170731 at Fri Mar 16 14:55:03 2018
 By Aleksey,,,
</metadata>
<defs>
<font id="kie" horiz-adv-x="1024" >
  <font-face 
    font-family="kie"
    font-weight="400"
    font-stretch="normal"
    units-per-em="1024"
    panose-1="0 0 0 0 0 0 0 0 0 0"
    ascent="960"
    descent="-64"
    bbox="-2 -85.1311 1024 940"
    underline-thickness="0"
    underline-position="0"
    unicode-range="U+0001-1F315"
  />
<missing-glyph 
 />
    <glyph glyph-name="uniE600" unicode="art" 
d="M419 632q-1 6 -4.5 13t-15.5 4q-8 -1 -11.5 -4.5t-9.5 -7.5q-6 -3 -10.5 -8t2.5 -6q6 -2 8 -2.5t4 2.5q1 2 6 6t10 2l4 -4.5t10 -3.5t7 2.5t0 6.5zM505 653q-13 4 -17.5 4h-15.5l-9.5 -1.5t-11.5 -7.5t-3 -9.5t-1 -7.5q0 -3 0.5 -4t1.5 -9q0 -7 4 -11t6 1q3 5 4 10t5 5
q4 1 6 4t4 8q2 4 6 3.5t9 -2.5t10.5 -5t10.5 3q4 6 4 10t-13 9v0zM443 551q4 2 12 9t4 10t-8 4.5t-5 0.5q-1 -2 -5.5 -5t-9.5 -3q-4 -1 -5.5 0.5t-3.5 1.5q-2 1 -3.5 -0.5l-1.5 -1.5q-4 -3 0 -4t9 -4q4 -2 8 -5.5t9 -2.5zM466 539q-3 0 -7.5 0.5t-9.5 -3.5q-5 -3 -8 -3t-7 1
q-3 1 -6.5 0t-4.5 -1q-4 -1 -3 -4.5t6 -3.5q5 -1 9 -1h8q5 0 13.5 2t12.5 5t2 5t-5 3v0zM998 332l2 6t2 5q10 32 16 74.5t6 82.5q0 39 -6 82t-16 74q-1 3 -2 5.5t-2 5.5q-16 54 -5 91l11 37l20 59q0 32 -21.5 55t-51.5 23l-76 -18l-27 -8.5t-52 -8.5q-24 -1 -43 7t-32 12
q-46 10 -97.5 16.5t-111.5 6.5v0v0v0q-60 0 -111.5 -6.5t-97.5 -16.5q-13 -4 -32 -12t-43 -7q-25 0 -52 8.5l-27 8.5l-76 18q-30 0 -51.5 -23t-21.5 -55l20 -59l11 -37t-5 -91q-1 -3 -2 -5.5t-2 -5.5q-10 -32 -16 -74.5t-6 -81.5q0 -40 6 -82.5t16 -74.5q1 -2 2 -5l2 -6
q16 -54 5 -91l-11 -37l-20 -59q0 -32 21.5 -55t51.5 -23l76 18l26.5 8.5t51.5 9.5q25 0 44 -8t32 -11q46 -11 97.5 -17.5t111.5 -6.5v0v0v0q60 0 111.5 6.5t97.5 17.5q13 3 32 11t43 8q25 -1 52 -9.5l27 -8.5l76 -18q30 0 51.5 23t21.5 55l-20 59l-11 37t5 91v0zM940 871
q14 14 25.5 21t14.5 3q4 -3 -3 -15.5t-20 -25.5q-13 -14 -24.5 -21t-15.5 -3q-3 3 3.5 15t19.5 26zM693 890l6 -4.5t5 -13.5t-7.5 -9.5t-18.5 1.5q-13 2 -37 14t-74 -11v0q-9 -5 -19.5 -12.5t-25.5 -15.5l39.5 45.5t131.5 5.5v0zM331 890q92 40 131.5 -5.5l39.5 -45.5
q-15 8 -25.5 15.5t-19.5 12.5v0q-51 23 -74.5 11t-36.5 -14q-12 -2 -18.5 -1.5t-7.5 9.5q-1 8 5 13l6 5v0zM78 557v0q6 -10 13 -21t15 -26l-44 41t-6 136l5 6t13 5t9 -8t-1 -19q-2 -13 -14 -37.5t10 -76.5v0zM106 489q-8 -15 -15 -26t-13 -20v0q-22 -52 -10 -77t14 -37
q2 -13 1 -20t-9 -8q-8 0 -13 5.5l-5 5.5q-38 95 6 136l44 41v0zM84 128q-13 -13 -25 -20t-15 -4q-4 4 3 16t20 25q13 14 25 21t15 4q3 -4 -3.5 -16t-19.5 -26zM107 830q-4 -4 -15.5 3t-24.5 21q-13 13 -20 25.5t-3 15.5q3 4 15 -3t25 -21t19.5 -26t3.5 -15zM331 109l-6 5
t-5 13q1 9 7.5 9.5t18.5 -1.5q13 -2 36.5 -14t74.5 11v0l19.5 13t25.5 16l-39.5 -46t-131.5 -6v0zM512 217l-91 20q4 10 11.5 21.5t18.5 18.5q1 2 1.5 4.5t-0.5 4.5q-2 2 -4 2t-4 -1q-13 -9 -21.5 -22.5t-13.5 -25.5l-101 22q4 14 8.5 28.5t11.5 30.5q26 59 67.5 79.5
l41.5 20.5l3.5 15.5t-2.5 29.5q-6 13 -22.5 20.5t-27.5 21.5q-11 13 -23 42.5t-11 76.5q2 48 19 83t58 37l49.5 -12t56.5 -96q6 -84 -7.5 -119t13.5 -67t31.5 -54.5t40.5 -55.5q4 -3 7 -6.5t6 -6.5q-49 -15 -62 -31.5l-13 -16.5zM693 109q-92 -40 -131.5 6l-39.5 46
q15 -9 25.5 -16l19.5 -13v0q50 -23 74 -11t37 14q12 2 18.5 1.5t7.5 -9.5q1 -8 -5 -13zM908 200q0 -11 -7 -19.5t-17 -8.5h-2q-1 5 -2.5 9t-2.5 7v0l-9 30q-9 29 -24 67t-34 74t-40 50q-40 27 -68.5 44.5t-41.5 85.5q-7 33 -22 80q-14 47 -39.5 90t-62.5 73q-38 30 -91 30
t-82 -34t-42.5 -77t-16.5 -84q-2 -40 -1 -54q1 -28 13 -67t-13 -72q-26 -32 -55 -82.5t-33 -87.5q-2 -13 -2 -27v-28q-2 -7 -2 -13.5v-13.5h-71q-10 0 -17 8.5t-7 19.5v599q0 12 7 20t17 8h744q10 0 17 -8t7 -20v-599v0zM980 104q-3 -3 -14.5 4t-25.5 20q-13 14 -19.5 26
t-3.5 16q4 3 15.5 -4t24.5 -21q13 -13 20 -25t3 -16zM968 312l-5 -5.5t-13 -5.5q-8 1 -9 8t1 20q2 12 14 37t-10 77v0q-6 9 -13 20t-15 26l44 -41t6 -136v0zM918 510q8 15 15 26t13 21v0q22 52 10 76.5t-14 37.5q-2 12 -1 19t9 8t13 -5l5 -6q38 -95 -6 -136l-44 -41v0z
M342 19h329v-98h-329v98v0z" />
    <glyph glyph-name="uniE601" unicode="e&#x36;&#x30;&#x31;" 
d="M195 813q0 -19 -13.5 -32.5t-32.5 -13.5t-32.5 13.5t-13.5 32.5t13.5 32.5t32.5 13.5t32.5 -13.5t13.5 -32.5zM150 751q-26 0 -46 -36t-25 -72h142q-5 36 -24.5 72t-46.5 36zM15 643h50l-30 85q-2 6 -7.5 9.5t-12.5 2.5q-7 -2 -11 -7t-2 -11l13 -79v0zM415 813
q0 -19 -13.5 -32.5t-32.5 -13.5t-32.5 13.5t-13.5 32.5t13.5 32.5t32.5 13.5t32.5 -13.5t13.5 -32.5zM370 751q-27 0 -46.5 -36t-24.5 -72h141q-4 36 -24 72t-46 36zM235 643h49l-30 85q-1 6 -7 9.5t-13 2.5q-6 -2 -10 -7t-3 -11l14 -79v0zM588 767q20 0 33 13.5t13 32.5
t-13 32.5t-33 13.5q-19 0 -32 -13.5t-13 -32.5t13 -32.5t32 -13.5zM589 751q-26 0 -46 -36t-24 -72h141q-5 36 -24.5 72t-46.5 36zM454 643h50l-30 85q-2 6 -7.5 9.5t-12.5 2.5q-7 -2 -11 -7t-2 -11zM854 813q0 -19 -13.5 -32.5t-32.5 -13.5t-32.5 13.5t-13.5 32.5
t13.5 32.5t32.5 13.5t32.5 -13.5t13.5 -32.5zM809 751q-27 0 -46.5 -36t-24.5 -72h142q-5 36 -25 72t-46 36zM674 643h49l-30 85q-1 6 -7 9.5t-13 2.5q-6 -2 -10 -7t-3 -11l14 -79v0zM984 332l-76 241h-1q9 0 15.5 5.5t6.5 13.5t-6.5 13.5t-15.5 5.5h-906v-316h689v-18h-689
v-168q0 -9 6.5 -15.5t15.5 -6.5h39q0 48 34 82t82 34t82 -34t34 -82h426q0 48 34 82t83 34q47 0 81 -34t34 -82h49q9 0 15 6.5t6 15.5v36q0 37 -2.5 106t-35.5 81v0zM178 388h-128v148h128v-148v0zM346 388h-129v147h129v-147zM518 388h-129v147h129v-147zM690 388h-129v147
h129v-147zM740 357v178h132l61 -178h-193zM178 179q-39 0 -66 -27t-27 -65q0 -39 27 -66t66 -27q38 0 65 27t27 66q0 38 -27 65t-65 27zM178 50q-15 0 -26 11t-11 26t11 25.5t26 10.5t25.5 -10.5t10.5 -25.5t-10.5 -26t-25.5 -11zM837 179q-39 0 -66 -27t-27 -65
q0 -39 27 -66t66 -27q38 0 65 27t27 66q0 38 -27 65t-65 27v0zM837 50q-16 0 -26.5 11t-10.5 26t10.5 25.5t26.5 10.5q15 0 25.5 -10.5t10.5 -25.5t-10.5 -26t-25.5 -11z" />
    <glyph glyph-name="uniE602" unicode="e&#x36;&#x30;&#x32;" 
d="M993 520q-30 80 -94 137q-64 56 -148.5 84.5t-183.5 26.5t-199 -39q-27 -10 -52.5 -22t-49.5 -26l-2 2q-22 26 -59 26.5t-67 -25.5l-19 -17q-1 3 -1.5 6t-0.5 6q-1 22 24.5 47.5t73.5 52.5q11 6 14 17.5t-3 22.5q-6 10 -17.5 13.5t-21.5 -2.5q-65 -36 -97 -74t-32 -78
q1 -14 5 -26.5t10 -23.5l-13 -11q-30 -26 -35 -62.5t18 -62.5l17 -20q-19 -37 -32 -76q-12 -38 -16 -77t1 -79q4 -39 18 -76q30 -81 94 -137q64 -57 148.5 -85.5t183.5 -26.5t199 39q99 37 176 99q76 63 121.5 140t57.5 162q11 84 -18 165zM568 726q62 23 123 -5t85 -91
q23 -63 -5 -123.5t-91 -84.5q-63 -23 -124 5t-84 91t5 124t91 84v0zM242 605q63 23 124 -5t84 -90q23 -63 -5 -124t-91 -84q-63 -24 -124 4t-84 91t5 124t91 84v0zM618 64q-89 -33 -175 -38q-87 -6 -160.5 13.5t-127.5 61.5t-77 105q-3 8 0.5 16t11.5 11t16 -0.5t12 -12.5
q19 -54 68 -90q48 -35 113.5 -51t144.5 -10q78 6 159 36q80 30 143 76q64 47 103.5 102t53.5 113q13 59 -7 112q-3 9 0.5 17t11.5 11t16 -1t11 -12q23 -62 10 -130q-14 -67 -57 -129t-112 -115q-70 -52 -158 -85v0zM265 799l27 14l26 -14l-5 30l21 21l-29 4l-13 27l-14 -27
l-29 -4l21 -21zM391 831l23 -37l15 41l43 11l-35 27l3 43l-36 -24l-40 16l11 -42l-27 -33zM546 832l29 -46l19 51l53 14l-43 33l4 55l-46 -30l-50 20l14 -53l-34 -41zM435 489q0 -17 -12 -29t-29 -12t-29 12t-12 29t12 29t29 12t29 -12t12 -29zM569 538q0 -17 -12 -29
t-29 -12t-29.5 12t-12.5 29q0 18 12.5 30t29.5 12t29 -12t12 -30z" />
    <glyph glyph-name="uniE603" unicode="e&#x36;&#x30;&#x33;" 
d="M1 703h1022v-47h-1022v47v0zM51 101h922v-52h-922v52v0zM27 38h970v-52h-970v52v0zM3 -25h1018v-53h-1018v53v0zM117 607h19q-9 -45 -14 -104.5t-5 -127.5q0 -64 4.5 -121t12.5 -101h-17v-28h132v28h-16q7 44 11.5 101t4.5 121q0 68 -5 127.5t-13 104.5h18v28h-132v-28v0
zM336 607h19q-9 -45 -14 -104.5t-5 -127.5q0 -64 4.5 -121t12.5 -101h-17v-28h133v28h-17q8 44 12.5 101t4.5 121q0 68 -5 127.5t-14 104.5h19v28h-133v-28zM556 607h18q-8 -45 -13 -104.5t-5 -127.5q0 -64 4.5 -121t11.5 -101h-16v-28h132v28h-16q7 44 11.5 101t4.5 121
q0 68 -5 127.5t-13 104.5h18v28h-132v-28v0zM907 635h-132v-28h19q-9 -45 -14 -104.5t-5 -127.5q0 -64 4.5 -121t12.5 -101h-17v-28h132v28h-16q8 44 12 101t4 121q0 68 -4.5 127.5t-13.5 104.5h18v28v0zM512 931l-448 -216h895l-447 216v0zM512 753q-23 0 -38.5 15.5
t-15.5 37.5q0 23 15.5 38.5t38.5 15.5q22 0 37.5 -15.5t15.5 -38.5q0 -22 -15.5 -37.5t-37.5 -15.5v0z" />
    <glyph glyph-name="uniE604" unicode="e&#x36;&#x30;&#x34;" 
d="M626 191q-12 1 -24.5 2t-25.5 1v72h124l-97 258h56l-91 191h37l-75 222l-74 -222h36l-91 -191h57l-98 -258h131v-71q-53 0 -103 -4t-95 -11v104h27l43 114l-43 107h43l-5 12l-68 150h26l-60 190l-60 -190h26l-74 -162h44l-87 -221h114v-118q-94 -22 -151 -55.5t-57 -72.5
q0 -28 29 -49q28 -21 78 -35.5t118 -24.5q69 -9 150 -12q122 41 178 86q55 44 71 82.5t7 67.5q-10 28 -16 38v0zM894 139v108h118l-91 222h42l-72 163h33l-65 198l-65 -198h32l-71 -163h42l-92 -222h119v-86q-36 9 -76 15.5t-84 11.5q69 -74 57 -147t-43 -122q73 5 133 15
q61 9 105 23.5t68 34.5q25 20 25 46q0 29 -30.5 54.5t-84.5 46.5v0z" />
    <glyph glyph-name="uniE605" unicode="e&#x36;&#x30;&#x35;" 
d="M891 938h-758q-55 0 -93.5 -39t-38.5 -94v-757q0 -55 38.5 -94t93.5 -39h758q55 0 93.5 39t38.5 94v757q0 55 -38.5 94t-93.5 39zM597 653v0q0 -32 22.5 -54.5t54.5 -22.5q-32 0 -54.5 -22.5t-22.5 -54.5v0q0 32 -22.5 54.5t-54.5 22.5q32 0 54.5 22.5t22.5 54.5zM12 730
q32 0 55 22.5t23 54.5v0q0 -32 22.5 -54.5t54.5 -22.5q-32 -1 -54.5 -23.5t-22.5 -54.5v0q0 32 -23 54.5t-55 23.5v0zM93 -43v0q0 21 -14.5 35.5t-35.5 14.5q21 0 35.5 14.5t14.5 35.5v0q0 -21 15 -35.5t35 -14.5q-20 0 -35 -14.5t-15 -35.5v0zM146 90v0q0 38 -27 64.5
t-65 26.5q38 0 65 27t27 65v0q0 -38 26.5 -65t64.5 -27q-38 0 -64.5 -26.5t-26.5 -64.5v0zM264 1v0q0 21 -15 36.5t-37 15.5q22 0 37 15.5t15 36.5v0q0 -21 15.5 -36.5t36.5 -15.5q-21 0 -36.5 -15.5t-15.5 -36.5zM698 -43v0q0 21 -15.5 36.5t-37.5 15.5q22 0 37.5 15.5
t15.5 36.5v0q0 -21 15 -36.5t37 -15.5q-22 0 -37 -15.5t-15 -36.5zM519 102q-68 0 -129 26q-60 26 -105 71t-71 106q-26 60 -26 129q0 56 17 107q18 50 49 91.5t74 72.5q43 30 94 46q-32 -38 -50.5 -86.5t-18.5 -102.5q0 -61 23 -115q23 -53 63 -93t94 -63q53 -23 114 -23
q54 0 102.5 18t86.5 50q-15 -50 -46 -93q-30 -43 -71.5 -74.5t-92.5 -48.5q-51 -18 -107 -18v0zM870 53v0q0 38 -27 64.5t-64 27.5q37 0 64 26.5t27 64.5v0q0 -38 26.5 -64.5t64.5 -26.5q-38 -1 -64.5 -27.5t-26.5 -64.5v0zM836 455q22 0 37.5 15.5t15.5 36.5v0
q0 -21 15 -36.5t37 -15.5q-22 0 -37 -15t-15 -37v0q0 21 -15.5 36.5t-37.5 15.5zM820 554v0q0 73 -51 124t-124 52q73 0 124 51t51 124v0q0 -73 51.5 -124t124.5 -51q-73 -1 -124.5 -52t-51.5 -124z" />
    <glyph glyph-name="uniE606" unicode="backpack" 
d="M949 910l-136 26q-1 1 -1.5 1h-1.5h-0.5h-0.5h-0.5h-1.5h-1h-2v0l-1 -1l-1 -0.5t-2 -0.5v0v0q0 -1 -1 -1.5t-1 -1.5h-0.5t-0.5 -1l-0.5 -1t-1.5 -2l-62 -129q52 -18 90.5 -42t61.5 -54l26 58l46 129q2 6 -0.5 12t-7.5 8v0zM139 703q23 30 61.5 54t90.5 42l-62 129
l-1.5 1.5t-0.5 1.5v1h-1q0 1 -1 1.5t-1 1.5v0v0q-1 0 -2 0.5t-1 1.5h-1v0h-2h-1h-1.5h-0.5h-0.5h-0.5h-1.5t-1.5 -1l-136 -26q-5 -2 -7.5 -8t-0.5 -12l46 -129zM297 285q14 0 23.5 -10t9.5 -24l12 -66q0 -14 -7.5 -23.5t-21.5 -9.5h-33q-13 0 -21 9.5t-8 23.5l12 66
q0 14 10 24t24 10h-74l-15 -213q1 -23 17.5 -39t38.5 -16h496q23 0 39 16t17 39l-15 213h-504v0zM880 626q0 11 -3.5 21t-8.5 20q-18 31 -57 57t-93 44q-18 5 -36.5 10t-38.5 8v2v1v67q0 25 -22 43t-48 18h-122q-26 0 -48 -18t-22 -43v-67v-1v-2q-20 -3 -38.5 -8t-36.5 -10
q-54 -18 -93 -44t-57 -57q-5 -10 -8 -20t-4 -21q-2 -7 -2.5 -14t-0.5 -14l-55 -538q0 -54 46.5 -99t101.5 -45h556q55 0 101.5 45t46.5 99l-55 538q0 7 -0.5 14t-2.5 14v0zM429 856q0 4 7 9.5t15 5.5h122q8 0 15 -5.5t7 -9.5v-63q-20 2 -40.5 3.5t-42.5 1.5t-42.5 -1.5
t-40.5 -3.5v63v0zM760 -14h-496q-35 0 -60.5 25.5t-25.5 61.5l19 271q0 36 25 61.5t61 25.5h458q36 0 61 -25.5t25 -61.5l19 -271q0 -36 -25.5 -61.5t-60.5 -25.5v0zM292 170h10q10 0 17 7t7 17t-7 17t-17 7h-10q-10 0 -17 -7t-7 -17t7 -17t17 -7z" />
    <glyph glyph-name="uniE607" unicode="e&#x36;&#x30;&#x37;" 
d="M512 875q-93 0 -174 -36q-82 -35 -142.5 -95.5t-96.5 -142.5q-35 -82 -35 -174q0 -69 20 -131q19 -63 54 -116t84 -95q49 -41 108 -67l12 343q-34 10 -59.5 52t-25.5 99q0 63 31.5 116.5t69.5 53.5t69.5 -53.5t31.5 -116.5q0 -57 -25.5 -99t-59.5 -52l13 -364
q30 -9 61 -13.5t64 -4.5h2.5h3.5v113q-14 9 -25 25.5t-14 45.5q-3 32 -2 81q1 50 8.5 102t21.5 100q14 47 38 75h13v-540q24 3 47.5 8t45.5 12l13 361q-25 9 -42.5 42.5t-17.5 78.5q0 1 2 29q1 28 2.5 62t2.5 61l2 28h13l8 -188h7l13 188h9l13 -188h8l13 188h9l13 -188h7
l9 188h12l2 -28q1 -27 2.5 -61t2.5 -62q2 -28 2 -29q0 -45 -17 -78.5t-43 -42.5l12 -338q56 27 102 69q47 41 80 93t51 113q19 61 19 128q0 92 -35 174q-36 82 -96.5 142.5t-142.5 95.5q-81 36 -174 36v0zM512 938q-106 0 -199 -41q-93 -40 -162.5 -109t-109.5 -162
q-40 -94 -40 -199q0 -106 40 -199t109.5 -162.5t162.5 -109.5t199 -40h2.5h3.5q10 0 20 0.5t20 1.5q37 3 72.5 11.5t69.5 22.5q2 1 5 2t5 2q69 29 127 76q57 48 98.5 109t64.5 134q23 72 23 152q0 105 -40 199q-40 93 -109.5 162t-162.5 109q-93 41 -199 41zM709 -4
q-14 -6 -29 -12t-30 -10q-22 -7 -45 -11.5t-47 -7.5q-10 -1 -20 -1.5t-20 -0.5h-3.5h-2.5q-32 0 -63.5 4.5t-60.5 12.5q-15 4 -30 9t-29 11q-64 27 -118 71q-53 44 -91.5 100.5t-59.5 124.5q-22 67 -22 141q0 98 38 184q37 86 101.5 150.5t150.5 101.5t184 37t184 -37
t150.5 -101.5t101.5 -150.5q38 -86 38 -184q0 -72 -21 -138q-20 -65 -56.5 -121t-87.5 -100t-112 -72v0z" />
    <glyph glyph-name="uniE608" unicode="bag" 
d="M518 935q-46 0 -87 -22t-72 -58.5t-49 -85.5t-18 -104h32q0 48 15 91q16 44 42.5 76.5t61.5 51.5q36 19 75 19q38 0 72 -19q33 -18 57.5 -50t38.5 -76q14 -43 14 -93h32q0 57 -16 106q-17 49 -46 85.5t-68 57.5t-84 21zM912 685h-800l-60 -766h920zM731 568
q-5 -56 -23 -104t-46 -83t-65 -55t-79 -20q-43 0 -81 20q-39 21 -69 56.5t-50 83.5q-19 48 -24 102q-11 4 -17.5 13.5t-6.5 21.5q0 15 11 26t27 11q15 0 26 -11t11 -26q0 -11 -5.5 -19.5t-13.5 -13.5q4 -47 21 -89t43 -73t59 -49t69 -18t67 17q31 18 55 48.5t39 72.5
q16 42 20 91q-9 5 -14.5 13.5t-5.5 19.5q0 15 11 26t26 11q16 0 27 -11t11 -26q0 -12 -6.5 -21.5t-16.5 -13.5z" />
    <glyph glyph-name="uniE609" unicode="ball" 
d="M511 937q-105 0 -198 -40q-93 -41 -162 -110t-109 -161q-40 -93 -40 -198t40 -198t109 -162t162 -109t198 -40t198 40q92 40 161.5 109t109.5 162t40 198t-40 198q-40 92 -109.5 161t-161.5 110q-93 40 -198 40v0zM924 634l-58 9l-23 -159l-147 -54l-116 121l-7 179
l140 46l-40 84q41 -15 78 -38t69 -52t59 -63q26 -34 45 -73v0zM441 884l-38 -71l150 -80l6 -177l-164 -89l-165 82v160h-85q26 34 59 64q33 29 70.5 51.5t79.5 37.5t87 22v0zM140 239l-21 -56q-33 53 -51.5 115t-18.5 130q0 14 1 28t3 28l47 -58l127 102l166 -82l29 -182
l-114 -76l-168 51v0zM511 -34q-56 0 -107.5 12.5t-98.5 35.5l62 6l-50 150l130 86l176 -10l47 -129l-91 -126l18 -17q-21 -4 -42.5 -6t-43.5 -2v0zM839 102l3 35v10l-154 -21l-47 130l58 153l150 55l83 -117l39 35q-8 -81 -43 -152.5t-89 -127.5v0z" />
    <glyph glyph-name="uniE60A" unicode="e&#x36;&#x30;a" 
d="M835 590q-34 -33 -67 -64q-33 -30 -64.5 -57.5t-60.5 -50.5t-55 -42q-7 -51 -45 -84.5t-70 -37.5q-7 -1 -17.5 -5t-22.5 -11q1 -5 2 -10.5t1 -10.5q0 -36 -25.5 -61.5t-61.5 -25.5t-61.5 25.5t-25.5 61.5q0 33 21.5 57.5t53.5 28.5q22 102 70.5 133t74.5 35q20 28 47 61
t59 69t68 74t75 77l6 6l9 9q-29 31 -65 57q-37 25 -78.5 43t-87.5 28q-46 9 -94 9q-86 0 -163 -31q-77 -32 -134.5 -87t-91.5 -127q-34 -73 -34 -155t27 -159t75 -143.5t114 -118.5q67 -52 148 -83q43 -16 96 -31q52 -15 107 -19t107 7q52 10 94 43q45 37 62 105.5
t-44 157.5q-41 61 6 121.5t50 140.5q0 16 -1 32.5t-4 32.5v0zM356 815q36 0 61.5 -25.5t25.5 -61.5t-25.5 -61.5t-61.5 -25.5t-61.5 25.5t-25.5 61.5t25.5 61.5t61.5 25.5zM186 397q-36 0 -61.5 25.5t-25.5 61.5t25.5 61.5t61.5 25.5t61.5 -25.5t25.5 -61.5t-25.5 -61.5
t-61.5 -25.5v0zM645 45q-36 0 -61.5 25.5t-25.5 61.5t25.5 61.5t61.5 25.5t61.5 -25.5t25.5 -61.5t-25.5 -61.5t-61.5 -25.5zM537 459l-15 -16l-7 -2q-15 -1 -56.5 -26t-56.5 -131l43 17t60 29v1v0q18 9 36 31t19 52v9l8 6q20 15 44.5 33.5t51.5 41.5q16 14 40 36
q25 22 51.5 46t51.5 47q25 24 42 40q85 85 128.5 139t43.5 77q0 3 -1 5.5t-4 4.5q-2 3 -4.5 4t-6.5 1q-23 0 -78 -42.5t-140 -126.5q-31 -31 -84 -88.5t-82 -88.5q-26 -30 -47 -53.5t-37 -45.5v0z" />
    <glyph glyph-name="uniE60B" unicode="e&#x36;&#x30;b" 
d="M829 226l21 59q21 58 17 141.5t-56 175.5q-51 91 -196 157l20 -56t33.5 -140.5t7.5 -182.5q-7 -99 -61 -184l30 21t68 37.5t72 15.5q35 -1 44 -44zM551 168v-42q-44 -3 -92 -5t-99 -2.5t-106 0.5q-54 2 -110 5l-21.5 -0.5t-21.5 -17.5l10 -28t23 -54q44 12 109 19.5
t143 -6.5q57 -10 117 -21q61 -11 123.5 -16t127.5 0q64 5 128 27q5 7 9.5 15t8.5 16q21 31 34.5 66.5t21.5 72.5v16t-55 -19q-13 -9 -41 -18t-68.5 -17.5t-91.5 -16.5q-52 -7 -113 -13v791q0 7 -5 12t-13 5t-13 -5t-5 -12v-1q-99 -29 -174 -83q-76 -54 -132.5 -121.5
t-95.5 -141.5q-39 -75 -64 -145q23 8 48 14.5t52 12.5q53 12 103 16q49 5 95 2.5t88 -10.5q42 -9 80 -25v-74q-57 33 -122 42q-65 8 -130 1t-124 -24q-60 -17 -105 -35q-17 -66 -23 -107.5l-6 -41.5q135 68 231 71q97 4 159 -18.5t91 -53.5l29 -30v0zM981 19q-4 6 -11 7.5
t-13 -2.5q-66 -41 -133 -57t-133 -16.5t-131 10.5q-64 10 -125 22q-9 1 -18 3l-18 4q-66 12 -122 8q-57 -3 -98.5 -13t-66.5 -20q-24 -11 -26 -12q-7 -3 -9 -10t1 -13q4 -7 10.5 -9t13.5 1q0 1 23 10q22 10 61 19t92 13q53 3 115 -8q8 -2 17 -3.5t18 -3.5q62 -12 127 -22.5
t132 -10.5q71 0 143.5 17t144.5 62q6 4 7.5 11t-1.5 13z" />
    <glyph glyph-name="uniE60C" unicode="e&#x36;&#x30;c" 
d="M382 608q0 1 -0.5 2.5t-1.5 2.5q0 1 -1 1.5t-2 0.5h-0.5h-1.5q-24 -3 -60 2.5t-60 12.5q-25 6 -59.5 17.5t-54.5 26.5h-0.5t-1.5 1h-1t-2 -1q-2 0 -3 -1t-1 -3q-5 -22 24.5 -71t75.5 -60q45 -11 94.5 18t55.5 51v0zM995 808l-4 2t-4 1q-2 1 -3 0.5t-2 -0.5t-41 -10
q-41 -10 -106.5 -20t-149.5 -14t-172 7q-5 1 -11 2t-11 1q-85 14 -162 39q-78 26 -137.5 51.5t-95.5 45.5l-36 19q-1 1 -2.5 1t-2.5 1h-0.5h-1.5t-1.5 -0.5t-1.5 -0.5v0v0q-1 0 -2 -0.5l-1 -0.5q-3 -2 -5 -4.5t-3 -6.5q-19 -146 -12 -314t47.5 -315t119.5 -250
q78 -104 202 -120h3.5t2.5 -1q123 -13 225 67q101 81 177.5 212t126.5 291q49 159 68 304q0 4 -1 7t-3 6zM376 -43q-59 13 -103 49t-77 84t-55 103q-23 55 -37 107q-18 64 -29 136q-12 73 -16.5 149t-2.5 155q1 78 10 154q23 -12 63 -31q39 -19 90.5 -39.5t112.5 -39.5
q60 -19 125 -32l-19 -197q5 0 8.5 -4t2.5 -10l40 -244q-1 -6 -37 -12.5t-42 -6.5l-3 -24q-33 8 -69.5 23t-58.5 32q-3 2 -6 3.5t-6 2.5t-6.5 1.5t-6.5 0.5h-4.5t-4.5 -1h-1h-1q-10 -4 -17.5 -12t-8.5 -19q-3 -24 8.5 -47.5t24.5 -40.5q21 -28 58 -57t83 -42l-15 -141v0z
M424 122h-1v0q-70 9 -125 67t-51 92q0 2 1.5 3.5t3.5 2.5h0.5h1.5v0v0h1.5t1.5 -1q1 0 1.5 -0.5t1.5 -0.5q31 -24 83 -43t91 -25h0.5h0.5q38 -5 94 0t92 20q1 1 2 1h2h2.5t2.5 -1q2 -1 2.5 -3t0.5 -4q-4 -34 -71.5 -75.5t-137.5 -32.5zM804 459h-1.5h-1.5t-1.5 0.5t-1.5 0.5
q-21 14 -58 25t-64 17q-26 5 -64.5 9.5t-63.5 0.5h-1.5h-1.5l-1 0.5t-2 0.5q-1 2 -1.5 3.5t-0.5 2.5q5 24 56.5 57t99.5 23q49 -10 83 -60.5t29 -74.5q0 -2 -1 -3t-3 -2zM423 544l-85 -232q-1 -5 32.5 -19t38.5 -15h0.5h0.5l28 277h-1v0q-5 1 -9 -2.5t-5 -8.5z" />
    <glyph glyph-name="uniE60D" unicode="e&#x36;&#x30;d" 
d="M9 467l64 -281v-1.5v-1.5q0 -5 1.5 -11t4.5 -11q19 -36 91.5 -64t176.5 -41l-18 105l-0.5 4t0.5 10v0.5v0.5l2 5v0v0v0l28 74q8 15 17.5 19.5t19.5 4.5h232q10 0 19.5 -4.5t17.5 -19.5l28 -74v0l2 -5v-0.5v-0.5q1 -6 0.5 -10l-0.5 -4l-18 -105q109 14 183 44t87 68
q1 3 1.5 5.5t0.5 4.5l66 289q-27 -28 -80 -49q-52 -21 -120 -35.5t-146 -21.5q-78 -8 -157 -8t-157 8q-78 7 -146 21.5t-120 35.5q-53 21 -80 49v0zM648 666l30 210l-17 3l-1 -6l-114 -21l104 -51l-19 -134q-28 2 -58 3.5t-61 1.5t-61 -1.5t-58 -3.5l-26 212l-17 -2v-5
l-105 -50l114 -23l17 -133q-81 -7 -150 -20q-68 -14 -118 -33t-79 -43q-28 -23 -28 -49q0 -3 0.5 -6t1.5 -6q7 -29 50 -54q43 -26 111.5 -44.5t157.5 -29.5t190 -11t190 11t157.5 29.5t111.5 44.5q43 25 50 54q1 3 1.5 6t0.5 6q0 26 -28 49q-29 24 -78.5 43t-118.5 33
q-69 13 -150 20v0zM512 484q-54 0 -103.5 4t-92.5 10q36 7 85 12t111 5t111 -5t85 -12q-43 -6 -92.5 -10t-103.5 -4zM766 509h-2.5t-2.5 -1q-21 7 -47 12.5t-54 8.5l22 54q1 3 -0.5 6t-4.5 4t-6 0t-4 -4l-23 -58q-32 4 -63.5 5.5t-60.5 1.5v63q0 3 -2.5 5.5t-5.5 2.5
t-5.5 -2.5t-2.5 -5.5v-63q-30 0 -63.5 -2t-66.5 -5l-23 58q-1 3 -4 4t-7 0q-3 -1 -4 -4t0 -6l22 -55q-27 -3 -51 -8t-44 -12q-1 1 -2.5 1h-2.5q-47 12 -74.5 27t-27.5 32q0 18 28 33t76.5 26.5t112.5 17.5q65 7 139 7t138 -7q65 -6 113.5 -17.5t76.5 -26.5t28 -33
q0 -17 -27.5 -32t-74.5 -27v0zM632 162h-240q-5 0 -8.5 -8t-3.5 -13l29 -164q0 -5 3.5 -8t8.5 -3h12l51 116h58l51 -116h10q5 0 8.5 3t3.5 8l29 164q0 5 -3.5 13t-8.5 8v0zM66 634q0 -15 -8.5 -26t-20.5 -11t-20.5 11t-8.5 26t8.5 25.5t20.5 10.5t20.5 -10.5t8.5 -25.5z
M132 677q0 -15 -8.5 -25.5t-20.5 -10.5t-20.5 10.5t-8.5 25.5t8.5 25.5t20.5 10.5t20.5 -10.5t8.5 -25.5zM202 704q0 -15 -8.5 -26t-20.5 -11t-21 11t-9 26t9 25.5t21 10.5t20.5 -10.5t8.5 -25.5zM1017 634q0 -15 -9 -26t-21 -11t-20.5 11t-8.5 26t8.5 25.5t20.5 10.5
t21 -10.5t9 -25.5zM950 677q0 -15 -8.5 -25.5t-20.5 -10.5t-20.5 10.5t-8.5 25.5t8.5 25.5t20.5 10.5t20.5 -10.5t8.5 -25.5zM881 704q0 -15 -9 -26t-21 -11t-20.5 11t-8.5 26t8.5 25.5t20.5 10.5t21 -10.5t9 -25.5zM520 888h-16v-5l-111 -37l111 -37v-138h16v217z" />
    <glyph glyph-name="uniE60E" unicode="e&#x36;&#x30;e" 
d="M985 287l-79 276q-1 7 -3 12.5t-4 10.5v0q10 0 16 6.5t6 15.5l-23 225q0 9 -6.5 15.5t-15.5 6.5h-740q-56 0 -95.5 -39.5t-39.5 -95.5v-608q0 -9 6.5 -15.5t15.5 -6.5h38q0 48 34 82t82 34t82.5 -34t34.5 -82h427q0 48 34 82t82 34t82 -34t34 -82h48q9 0 15.5 6.5
t6.5 15.5v36q0 38 -2.5 82.5t-35.5 56.5v0zM173 657h-113v68q6 23 20 41t34 28h59v-137v0zM346 343h-129v178h129v-178zM346 657h-129v137h129v-137zM518 343h-129v178h129v-178zM518 657h-129v137h129v-137zM690 343h-129v178h129v-178zM690 657h-129v137h129v-137z
M740 794h107l14 -137h-121v137v0zM740 312v209h132l61 -209h-193zM177 182q-38 0 -65 -26.5t-27 -65.5q0 -38 27 -65t65 -27q39 0 66 27t27 65q0 39 -27 65.5t-66 26.5v0zM177 54q-15 0 -25.5 10.5t-10.5 25.5t10.5 25.5t25.5 10.5t26 -10.5t11 -25.5t-11 -25.5t-26 -10.5v0
zM837 182q-39 0 -66 -26.5t-27 -65.5q0 -38 27 -65t66 -27q38 0 65 27t27 65q0 39 -27 65.5t-65 26.5zM837 54q-15 0 -26 10.5t-11 25.5t11 25.5t26 10.5t25.5 -10.5t10.5 -25.5t-10.5 -25.5t-25.5 -10.5z" />
    <glyph glyph-name="uniE60F" unicode="e&#x36;&#x30;f" 
d="M512 710h364l-364 -631l-364 631h364z" />
    <glyph glyph-name="uniE611" unicode="e&#x36;&#x31;&#x31;" 
d="M229 427v364l630 -364l-630 -364v364z" />
    <glyph glyph-name="uniE612" unicode="e&#x36;&#x31;&#x32;" 
d="M512 143h-364l364 631l364 -631h-364z" />
    <glyph glyph-name="uniE613" unicode="bad" 
d="M445 509q4 9 0.5 18t-12.5 13q-3 1 -5 1.5t-5 0.5q-7 0 -12.5 -4t-8.5 -10q-11 -24 -32.5 -38t-47.5 -14t-47.5 14t-31.5 38q-3 6 -9 10t-13 4q-2 0 -4.5 -0.5t-4.5 -1.5q-9 -4 -12.5 -13t0.5 -18q16 -36 49.5 -58t72.5 -22q40 0 73 22t50 58v0zM812 540q-2 1 -4.5 1.5
t-4.5 0.5q-7 0 -13 -4t-9 -10q-10 -24 -32 -38t-47 -14q-26 0 -47.5 14t-32.5 38q-3 6 -8.5 10t-12.5 4q-3 0 -5 -0.5t-5 -1.5q-9 -4 -12.5 -13t0.5 -18q16 -36 49.5 -58t73.5 -22q39 0 72.5 22t49.5 58q4 9 0.5 18t-12.5 13v0zM512 936q-106 0 -198 -40
q-93 -40 -162.5 -109t-109.5 -162t-40 -198q0 -106 40 -199t109.5 -162t162.5 -109q92 -40 198 -40t198 40q93 40 162.5 109t109.5 162t40 199q0 105 -40 198t-109.5 162t-162.5 109q-92 40 -198 40v0zM512 -41q-97 0 -182 37t-148.5 100.5t-100.5 148.5q-36 85 -36 182
q0 96 36 181q37 86 100.5 149.5t148.5 99.5q85 37 182 37t182 -37q85 -36 148.5 -99.5t100.5 -149.5q36 -85 36 -181q0 -97 -36 -182q-37 -85 -100.5 -148.5t-148.5 -100.5t-182 -37zM702 252h-380q-12 0 -20.5 -8.5t-8.5 -21.5q0 -12 8.5 -20.5t20.5 -8.5h380
q12 0 20.5 8.5t8.5 20.5q0 13 -8.5 21.5t-20.5 8.5z" />
    <glyph glyph-name="uniE614" unicode="calendar" 
d="M864 833h-61v58q0 19 -13.5 32.5t-32.5 13.5t-32.5 -13.5t-13.5 -32.5v-58h-153v58q0 19 -13.5 32.5t-32.5 13.5t-32.5 -13.5t-13.5 -32.5v-58h-153v58q0 19 -13.5 32.5t-32.5 13.5t-32.5 -13.5t-13.5 -32.5v-58h-61q-65 0 -111.5 -46.5t-46.5 -111.5v-601
q0 -65 46.5 -111.5t111.5 -46.5h704q65 0 111.5 46.5t46.5 111.5v601q0 65 -46.5 111.5t-111.5 46.5v0zM965 74q0 -42 -29.5 -71.5t-71.5 -29.5h-704q-42 0 -71.5 29.5t-29.5 71.5v601q0 41 29.5 70.5t71.5 29.5h61v-41q0 -19 13.5 -32t32.5 -13t32.5 13t13.5 32v41h153v-41
q0 -19 13.5 -32t32.5 -13t32.5 13t13.5 32v41h153v-41q0 -19 13.5 -32t32.5 -13t32.5 13t13.5 32v41h61q42 0 71.5 -29.5t29.5 -70.5v-601v0zM181 357h111v-111h-111v111zM365 357h111v-111h-111v111zM548 357h111v-111h-111v111zM732 357h111v-111h-111v111zM181 185h111
v-111h-111v111zM365 185h111v-111h-111v111zM548 185h111v-111h-111v111zM732 185h111v-111h-111v111zM414 646h63v-227h-63v227zM645 419l-74 112h-19l65 115h-48l-67 -115l72 -112h71z" />
    <glyph glyph-name="uniE615" unicode="checked" 
d="M869 937h-714q-64 0 -109 -44.5t-45 -108.5v-715q0 -63 45 -108t109 -45h714q64 0 109 45t45 108v715q0 64 -45 108.5t-109 44.5zM544 241l-111 -111l-325 326l110 110l215 -215l373 373l110 -111z" />
    <glyph glyph-name="uniE616" unicode="clock" 
d="M512 937q-106 0 -199 -40t-162 -109t-110 -163q-40 -93 -40 -198q0 -106 40 -199q41 -93 110 -162.5t162 -109.5t199 -40t199 40t162.5 109.5t109.5 162.5t40 199q0 105 -40 198q-40 94 -109.5 163t-162.5 109t-199 40zM535 -42v107h-46v-107q-90 5 -170 41
q-79 36 -138.5 96t-96.5 139q-36 79 -41 169h107v47h-107q5 90 41 169q37 79 96.5 139t138.5 96q80 37 170 41v-106h46v106q90 -4 170 -41q79 -36 138.5 -96t96.5 -139q36 -79 41 -169h-107v-47h107q-5 -90 -41 -169q-37 -79 -96.5 -139t-138.5 -96q-80 -36 -170 -41z
M515 471l-288 265l-47 -51l329 -302l267 178l-39 58z" />
    <glyph glyph-name="uniE617" unicode="close" 
d="M1020 841l-93 94l-415 -415l-415 415l-93 -94l415 -414l-415 -415l93 -93l415 414l415 -414l93 93l-415 415z" />
    <glyph glyph-name="uniE618" unicode="australia" 
d="M194 825l191 95q-53 -13 -101.5 -37.5t-89.5 -57.5zM535 936v-58l-238 -117h238v-34h-435q-1 -1 -1.5 -2t-1.5 -2q-1 -2 -2.5 -4t-2.5 -4q-2 -2 -3 -4t-3 -4q-1 -2 -2 -3.5t-2 -3.5l-1 -1v-1v0v0h-1v0q-1 -3 -3 -6l-4 -6v-0.5t-1 -0.5l-3.5 -7l-3.5 -7q-1 0 -1 -1t-1 -1
q0 -1 -0.5 -1.5t-0.5 -1.5l-0.5 -0.5t-0.5 -1.5q-1 -1 -2 -2.5t-1 -3.5h-0.5t-0.5 -1t-0.5 -2t-1.5 -2l-1.5 -3l-1.5 -3l-0.5 -1t-0.5 -2q-1 -1 -1.5 -2.5t-0.5 -2.5v0q-1 0 -1 -0.5v-1.5q-1 -1 -1.5 -2l-1.5 -3v-0.5v-1.5h-0.5t-0.5 -1t-1 -2.5t-1 -3.5q-1 -1 -1.5 -3
t-1.5 -3q-2 -5 -3.5 -9.5t-3.5 -9.5q0 -1 -0.5 -2t-1.5 -2q-1 -4 -2 -7.5t-3 -7.5q0 -2 -1 -4.5t-1 -4.5q-1 -3 -2 -6.5t-2 -7.5q-1 -2 -1.5 -4t-0.5 -4q-1 -5 -2.5 -10t-2.5 -11q0 -1 -0.5 -3t-0.5 -3q-1 -4 -1.5 -8t-1.5 -8q0 -2 -0.5 -4.5t-0.5 -4.5q0 -3 -0.5 -7
t-1.5 -7v-4.5t-1 -4.5v-8t-1 -8v-3v-4q0 -6 -0.5 -11.5t-0.5 -11.5v-8v-8v-0.5v-0.5q4 -103 45 -193t110 -156.5t160 -105.5q92 -38 195 -38q106 0 198 40q93 40 162.5 109t109.5 162t40 199q0 102 -38 193t-104 159.5t-155 110.5q-89 41 -190 46v0zM355 109l-53 58l-53 -58
l11 79l-77 6l67 41l-43 65l72 -28l23 75l24 -75l72 28l-43 -65l66 -41l-76 -6zM535 585h-233l233 -116v-20l-273 136h-79l352 -175h-118l-324 162v-162h-28v209h470v-34v0zM676 750l34 -14l12 36l11 -36l34 14l-20 -31l31 -20l-36 -3l5 -37l-25 27l-26 -27l5 37l-36 3l31 20
zM628 483l-25 28l-26 -28l5 37l-36 4l31 19l-20 31l34 -13l12 36l11 -36l34 13l-20 -31l31 -19l-36 -4zM747 109l-25 28l-26 -28l5 38l-36 3l31 19l-20 31l34 -13l12 36l11 -36l34 13l-20 -31l31 -19l-36 -3zM770 346l7 -21l-19 13l-19 -13l7 21l-19 13h24l7 22l7 -22h25
l-20 -13v0zM869 448l-25 -27l5 37l-37 3l32 20l-21 31l35 -13l11 35l11 -35l34 13l-20 -31l31 -20l-36 -3l5 -37zM534 936h-1v0h-10.5h-10.5h-7.5h-7.5h-2h-3h-0.5h-1.5h-4h-4q-1 0 -2.5 -0.5t-2.5 -0.5h-2h-2h-3t-4 -1h-2h-2h-2h-3q-2 -1 -4.5 -1t-4.5 -1l-301 -150
l-1.5 -1.5t-1.5 -0.5q-3 -4 -6 -7.5t-7 -6.5q-1 -2 -2 -3l-2 -2h56z" />
    <glyph glyph-name="uniE619" unicode="canada" 
d="M621 343l100 82l-20 10q-7 2 -6.5 7t2.5 14l16 56l-59 -13q-4 0 -7 2t-3 5l-8 26l-46 -52q-5 -6 -12 -4.5t-4 15.5l20 105l-26 -14q-6 -3 -11 -3t-8 6l-37 68l-37 -68q-3 -6 -8 -6t-11 3l-26 14l20 -105q3 -14 -4 -15.5t-12 4.5l-46 52l-8 -26q0 -3 -3 -5t-7 -2l-59 13
l16 -56q2 -9 2.5 -14t-6.5 -7l-20 -10l100 -82q3 -2 4.5 -5.5t0.5 -7.5l-9 -29q26 3 50 7t50 7q3 0 5.5 -3t2.5 -6l-4 -106h17l-3 106q0 3 2.5 6t5.5 3q26 -3 50 -7t50 -7l-9 29q-1 4 0.5 7.5t4.5 5.5zM888 83h1v1q4 4 8.5 9t8.5 10q1 1 2 2.5t2 2.5q3 4 6 7.5t6 7.5l2 4
t3 3q2 4 4.5 7t4.5 7q2 2 3 4t3 4q2 4 4 7t4 7q1 2 2.5 4t2.5 5q2 3 4 6.5t3 6.5q2 2 3 4.5t2 4.5l3.5 7l3.5 7q1 2 2 4.5t2 5.5q2 3 3.5 6.5t2.5 7.5q1 2 2 4.5t2 5.5q2 3 3 6.5t2 7.5q1 2 2 5t2 5q1 4 2 7.5t2 7.5q1 2 2 5t1 5l2 8t2 7t1.5 5.5t0.5 5.5l2 8l2 8
q0 2 0.5 4.5t0.5 5.5q1 4 1.5 8.5t1.5 8.5q0 2 0.5 4.5t0.5 4.5q0 5 0.5 10t0.5 10q1 2 1 3.5v3.5q0 7 0.5 14t0.5 14q0 6 -0.5 13t-0.5 14v3.5t-1 3.5q0 5 -0.5 10t-0.5 10q0 2 -0.5 4.5t-0.5 4.5q-1 5 -1.5 9t-1.5 8q0 3 -0.5 5.5t-0.5 5.5q-1 4 -2 7.5t-2 7.5
q0 3 -0.5 5.5t-1.5 5.5q-1 4 -2 7.5t-2 7.5q0 3 -1 5.5t-2 5.5t-2 6.5t-2 7.5q-1 3 -2 5.5t-2 5.5t-2 6.5t-3 6.5q-1 3 -2 5.5t-2 5.5t-2.5 6.5t-3.5 6.5q-1 3 -2 5.5t-2 5.5q-2 3 -3.5 6.5t-3.5 6.5q-1 2 -2 4.5t-3 5.5q-1 3 -3 6t-4 7q-1 2 -2.5 4.5t-2.5 4.5q-2 3 -4 6.5
t-4 6.5q-2 2 -3 4t-3 4q-2 4 -4.5 7.5t-4.5 6.5q-2 2 -3 3.5t-3 3.5q-2 4 -5 8t-6 7q-1 2 -2 3l-2 2q-4 5 -8.5 10t-8.5 10h-0.5t-0.5 1q-4 4 -8 8.5t-8 8.5q-2 1 -3.5 2.5l-2.5 2.5l-6.5 6.5l-6.5 6.5h-0.5t-0.5 1v0q-34 30 -73 54t-82 41t-90 26q-46 8 -95 8t-95 -8
q-47 -9 -90 -26t-82 -41t-73 -54v0q0 -1 -0.5 -1t-0.5 -1q-3 -3 -6.5 -6t-6.5 -6l-2.5 -2.5t-3.5 -2.5q-4 -4 -8 -8.5t-8 -8.5l-1 -1v0q-4 -5 -8.5 -10t-8.5 -10l-2 -2t-2 -3q-3 -3 -6 -7l-6 -8q-1 -2 -2 -3.5t-3 -3.5q-2 -4 -4.5 -7t-4.5 -7q-2 -2 -3 -4t-3 -4
q-2 -3 -4 -6.5t-4 -6.5q-1 -2 -2.5 -4.5t-2.5 -4.5q-2 -4 -4 -7t-3 -6q-2 -3 -3 -5.5t-2 -4.5q-2 -3 -3.5 -6.5t-3.5 -6.5q-1 -3 -2 -5.5t-2 -5.5q-2 -3 -3.5 -6.5t-2.5 -6.5t-2 -5.5t-2 -5.5q-2 -3 -3 -6.5t-2 -6.5t-2 -5.5t-2 -5.5q-1 -4 -2 -7.5t-2 -6.5t-2 -5.5t-1 -5.5
q-1 -4 -2 -7.5t-2 -7.5q-1 -3 -1.5 -5.5t-1.5 -5.5q0 -4 -1 -7.5t-2 -7.5q0 -3 -0.5 -5.5t-0.5 -5.5q-1 -4 -1.5 -8t-1.5 -9q0 -2 -0.5 -4.5t-0.5 -4.5q0 -5 -0.5 -10t-1.5 -10v-3.5v-3.5q0 -7 -0.5 -13.5t-0.5 -13.5t0.5 -14t0.5 -14v-3.5v-3.5q1 -5 1.5 -10t0.5 -10
q0 -2 0.5 -4.5t0.5 -4.5q1 -4 1.5 -8.5t1.5 -8.5q0 -3 0.5 -5.5t0.5 -4.5l2 -8t1 -8q1 -3 1.5 -5.5t1.5 -4.5l2 -8l2 -8q0 -2 1 -5t2 -5q1 -4 2 -7.5t2 -7.5q1 -2 2 -4.5t2 -5.5q1 -4 2 -7.5t3 -6.5q1 -3 2 -5.5t2 -4.5q1 -4 2.5 -7.5t3.5 -6.5q1 -3 2 -5.5t2 -4.5
q2 -3 3.5 -6.5t3.5 -7.5q1 -2 2 -4.5t3 -4.5q1 -3 3 -6.5t4 -6.5q1 -3 2.5 -5t2.5 -4q2 -4 4 -7t4 -7q2 -2 3 -4t3 -4q2 -3 4.5 -6.5t4.5 -7.5q2 -1 3 -3l2 -4q3 -4 6 -7.5t6 -7.5q1 -1 2 -2.5t2 -2.5l8 -10t9 -9v-1h1q4 -5 8 -9t8 -9q2 -1 3.5 -2.5l2.5 -2.5q3 -3 6.5 -6
t6.5 -6l0.5 -0.5l0.5 -0.5v0q34 -30 73 -54q39 -25 82 -41.5t89 -25.5q47 -9 96 -9t95 9q47 9 90 25.5t82 40.5q39 25 73 55v0l0.5 0.5l0.5 0.5q3 3 6.5 6t6.5 6l2.5 2.5t3.5 2.5q4 5 8 9t8 9v0zM512 -74q-49 0 -96 9t-90 26.5t-81 42.5q-39 24 -73 55v735q34 31 73 56
q38 25 81 42t90 26t96 9t96 -9t90 -26t81 -42q39 -25 73 -56v-735q-34 -31 -73 -55q-38 -25 -81 -42.5t-90 -26.5t-96 -9v0z" />
    <glyph glyph-name="uniE61A" unicode="e&#x36;&#x31;a" 
d="M888 82q0 1 0.5 1.5t1.5 0.5q3 4 6.5 8.5t7.5 8.5q1 1 2 2.5t3 2.5q2 3 4.5 6t4.5 6q1 2 2.5 3.5t2.5 3.5q2 3 4.5 6t4.5 7q1 1 2 2.5t2 2.5q3 5 6 9.5t6 9.5q0 1 0.5 1.5l1.5 1.5q2 4 4.5 8t4.5 8q1 2 2 3.5t1 3.5q2 3 4 6.5t3 7.5q1 1 2 3l2 4q2 4 3.5 7.5t3.5 7.5
q0 1 1 2.5t1 3.5l4 10l4 10l1.5 3t0.5 3q2 4 3 8t3 8q0 2 1 4t1 4q1 3 2 7l2 8q1 1 1.5 3t0.5 4q1 5 2.5 9.5t2.5 8.5v2.5t1 2.5q1 5 2 11t2 11v3.5t1 3.5q0 4 0.5 8.5t1.5 8.5v4v4q1 4 1 8t1 8v4v4q0 6 0.5 11.5t0.5 11.5v0.5v0.5v0v1q0 5 -0.5 11t-0.5 12v3v4q-1 4 -1 8
t-1 8v5v4q-1 4 -1.5 8t-0.5 8q-1 2 -1 3.5v3.5q-1 6 -2 11.5t-2 11.5q-1 1 -1 2v2q-1 5 -2.5 9.5t-2.5 8.5q0 2 -0.5 4t-1.5 4q-1 4 -2 7.5t-2 7.5q0 2 -1 4t-1 3q-2 5 -3 9t-3 8q0 1 -0.5 2.5t-1.5 2.5q-2 5 -4 10.5t-4 10.5q0 1 -1 2.5t-1 2.5q-2 4 -3.5 8t-3.5 8
q-1 1 -2 3l-2 4q-1 3 -3 6.5t-4 6.5q0 2 -1 3.5t-2 3.5q-2 4 -4.5 8t-5.5 8q0 1 -0.5 2l-0.5 1q-3 5 -6 9.5t-6 9.5q-1 2 -2 3t-2 3q-2 3 -4.5 6t-4.5 7l-2.5 2.5t-2.5 3.5q-2 3 -4.5 6t-5.5 6q-1 1 -2 2.5t-2 3.5q-4 4 -7.5 8t-6.5 8q-1 1 -1.5 1t-0.5 1q-3 4 -6.5 7.5
t-7.5 6.5q-1 2 -2.5 3t-2.5 3q-3 2 -5.5 4.5l-5.5 5.5q-2 1 -3 2.5t-3 2.5q-3 3 -6 5.5t-6 5.5q-1 1 -2.5 2t-2.5 2q-4 3 -8.5 6.5t-8.5 7.5q-1 0 -2 1l-2 2q-4 2 -7.5 4.5t-6.5 5.5q-2 1 -3.5 2t-3.5 2l-6 4t-7 4q-1 1 -3 2t-3 2q-4 2 -8 4.5t-7 4.5q-2 0 -3 1t-2 1
q-5 3 -10 5.5t-10 4.5q-1 1 -2.5 1.5t-2.5 1.5q-4 2 -7.5 3.5t-7.5 3.5q-2 1 -4 1.5t-4 1.5q-3 1 -6.5 2.5t-7.5 3.5q-2 0 -3.5 1t-3.5 1q-1 1 -1.5 1h-1.5v0q-40 14 -82.5 21.5t-87.5 7.5t-87.5 -7.5t-82.5 -21.5v0h-1.5t-1.5 -1q-2 0 -3.5 -1t-3.5 -1q-4 -2 -7.5 -3.5
t-6.5 -2.5q-2 -1 -4 -1.5t-4 -1.5q-3 -2 -7 -3.5t-8 -3.5q-1 0 -2.5 -1t-2.5 -2q-5 -2 -10 -4.5t-10 -5.5q-1 0 -2 -0.5t-2 -1.5q-4 -2 -8 -4.5t-8 -4.5q-1 -1 -3 -2t-3 -2q-4 -2 -7 -4l-6 -4q-2 -1 -3.5 -2t-2.5 -2q-4 -3 -7.5 -5.5t-7.5 -5.5q-1 0 -2 -1t-2 -1
q-4 -4 -8.5 -7.5t-8.5 -6.5q-1 -1 -2.5 -2t-2.5 -2q-3 -3 -6 -5.5t-6 -5.5q-2 -1 -3 -2.5t-3 -2.5l-5.5 -5.5l-5.5 -5.5q-1 -1 -2.5 -2t-2.5 -3q-4 -3 -7.5 -6.5t-6.5 -7.5q0 -1 -0.5 -1t-1.5 -1q-3 -4 -6.5 -8t-7.5 -9q-1 -1 -2 -2.5t-2 -2.5q-3 -3 -5.5 -6t-4.5 -6
q-1 -2 -2.5 -3.5l-2.5 -2.5q-2 -4 -4.5 -7t-4.5 -6q-1 -2 -2 -3t-2 -3q-3 -4 -6 -9l-6 -10l-0.5 -1l-0.5 -1q-3 -4 -5.5 -8.5t-4.5 -8.5q-1 -2 -2 -3.5t-1 -3.5q-2 -3 -4 -6.5t-3 -6.5l-2 -4t-2 -3q-2 -4 -3.5 -8t-3.5 -8q0 -1 -1 -2.5t-1 -2.5q-2 -5 -4 -10.5t-4 -10.5
q-1 -1 -1.5 -2.5t-0.5 -2.5q-2 -4 -3 -8t-3 -9q0 -2 -1 -3.5t-1 -3.5q-1 -4 -2 -7.5t-2 -7.5q-1 -2 -1.5 -4t-0.5 -4q-2 -4 -3 -8.5t-2 -9.5v-2t-1 -2q-1 -6 -2 -11.5t-2 -11.5v-3.5t-1 -3.5q0 -4 -0.5 -8t-1.5 -8v-4.5v-4.5q-1 -4 -1 -8t-1 -8v-4v-4q0 -5 -0.5 -11
t-0.5 -12v0v0v-1v0q0 -6 0.5 -11.5t0.5 -11.5v-4v-4q1 -4 1 -8t1 -8v-4v-4q1 -5 1.5 -9t0.5 -8q1 -2 1 -3.5v-3.5q1 -5 2 -11t2 -11q1 -2 1 -3v-2q1 -4 2 -8.5t3 -9.5q0 -2 0.5 -4t1.5 -3l2 -8t2 -7q0 -2 1 -4t1 -4q2 -4 3 -8t3 -8q0 -2 0.5 -3l1.5 -3l4 -10t4 -11
q0 -1 1 -2.5t1 -2.5q2 -4 3.5 -7.5t3.5 -7.5l2 -4t2 -3q1 -4 3 -7.5t4 -6.5q0 -2 1 -3.5t2 -3.5q2 -4 4.5 -8t5.5 -8q0 -1 0.5 -1.5t0.5 -1.5q3 -5 6 -9.5t6 -9.5q1 -1 2 -2.5t2 -2.5q2 -4 4.5 -7t4.5 -6q1 -2 2.5 -3.5t2.5 -3.5q2 -3 4.5 -6t5.5 -6q1 -1 2 -2.5t2 -2.5
q4 -4 7.5 -8.5t6.5 -8.5q1 0 1.5 -0.5t0.5 -1.5q4 -3 7 -7t7 -7l2.5 -2.5l2.5 -2.5l5.5 -5.5l5.5 -5.5q2 -1 3 -2.5t3 -2.5q3 -3 6 -5.5t6 -4.5q1 -2 2.5 -3t2.5 -2q4 -3 8.5 -6.5t8.5 -6.5l2 -2t3 -1q3 -3 6.5 -5.5t6.5 -4.5q2 -1 3.5 -2.5t3.5 -2.5l6 -4t7 -4q1 -1 3 -2
t3 -2l8 -4t7 -5q1 0 2.5 -0.5t2.5 -1.5q5 -3 10 -5.5t10 -4.5q1 -1 2.5 -1.5t3.5 -1.5q3 -2 7 -3.5t7 -3.5q2 0 4 -1l4 -2q3 -1 6.5 -2.5t7.5 -2.5q2 -1 3.5 -1.5t3.5 -1.5q1 0 1.5 -0.5t1.5 -0.5v0q40 -14 82.5 -21.5t87.5 -7.5t87.5 7.5t82.5 21.5v0q1 0 1.5 0.5t1.5 0.5
q2 1 3.5 1.5t3.5 1.5q4 1 7.5 2.5t6.5 2.5l4 2t4 1q4 2 7.5 3.5t6.5 3.5q2 1 3.5 1.5t3.5 1.5l9 4.5t10 5.5q1 1 2.5 1.5t2.5 1.5q4 2 7.5 4t7.5 4q1 1 3 2t3 2q4 2 7 4l6 4q2 1 3.5 2.5t3.5 2.5q3 2 6.5 4.5t6.5 5.5q2 0 3 1l2 2q4 3 8.5 6.5t8.5 6.5l2.5 2.5l2.5 2.5
q3 2 6 4.5t6 5.5q2 1 3.5 2.5l2.5 2.5l5.5 5.5l5.5 5.5l2.5 2.5l2.5 2.5l7 7l7 7v0zM512 -74q-45 0 -87.5 7.5t-82.5 22.5v942q40 14 82.5 21.5t87.5 7.5t87.5 -7.5t82.5 -21.5v-942q-40 -15 -82.5 -22.5t-87.5 -7.5z" />
    <glyph glyph-name="uniE61B" unicode="e&#x36;&#x31;b" 
d="M281 735v62h-62v-62q-7 0 -13.5 -6.5t-6.5 -13.5h-62v-62h62q0 -8 6.5 -14.5t13.5 -6.5v-61h62v61q8 0 14.5 6.5t6.5 14.5h61v62h-61q0 7 -6.5 13.5t-14.5 6.5v0zM226 729v62h49v-62h1.5h1.5q-1 -2 -1.5 -4t0.5 -5q-5 4 -12 6.5t-15 2.5q-7 0 -14 -2t-13 -7q1 3 1 5t-2 4
h2h2v0zM205 656v1.5v1.5h-62v49h62v2v1q2 -1 4 -1t5 1q-5 -6 -7 -13t-2 -14q0 -8 2 -14.5t7 -12.5q-3 1 -5 0.5t-4 -1.5v0zM275 639v-62h-49v62h-2h-2q2 2 2 4t-1 4q6 -4 13 -6.5t14 -2.5q8 0 15 2.5t12 6.5q-1 -2 -0.5 -4t1.5 -4h-1.5h-1.5zM250 643q-8 0 -15.5 3t-13.5 9
t-9 13.5t-3 15.5t3 15.5t9 13.5t13.5 9t15.5 3q17 0 29 -12t12 -29t-12 -29t-29 -12zM357 659h-62v-1.5v-1.5q-2 1 -4 1.5t-4 -0.5q4 5 6.5 12t2.5 15q0 7 -2.5 14t-6.5 13q2 -1 4 -1t4 1v-1v-2h62v-49v0zM250 719q-7 0 -13.5 -2.5t-11.5 -7.5t-7.5 -11.5t-2.5 -13.5
t2.5 -13.5t7.5 -11.5t11.5 -7.5t13.5 -2.5q15 0 25 10t10 25q0 14 -10 24.5t-25 10.5zM250 653q-6 0 -11.5 2.5t-9.5 6.5q-5 4 -7 10t-2 12t2 11.5t7 9.5q4 5 9.5 7t11.5 2q13 0 22 -9t9 -21q0 -13 -9 -22t-22 -9v0zM1022 427q0 105 -40 198t-109.5 162t-162.5 109
q-92 40 -198 40v0q-106 0 -198 -40q-93 -40 -162.5 -109t-109.5 -162t-40 -198q0 -106 40 -199t109.5 -162t162.5 -109q92 -40 198 -40q46 0 90 8t85 23q12 4 23.5 9t22.5 10q11 6 22 11.5t21 12.5q56 33 101 80q45 46 77 102t50 120t18 134v0v0v0zM11 427q0 103 40 194
q39 92 107 160t159 107t195 39v-1001q-104 0 -195 39q-91 40 -159 108t-107 159q-40 91 -40 195v0zM277 684q0 1 -1.5 2t-4.5 2l3.5 3.5t0.5 2.5q0 1 -2 1.5t-6 -0.5q2 3 2.5 5t-0.5 3q0 1 -2 0.5t-5 -2.5v5t-1 3q-1 0 -3 -1t-4 -4q0 3 -1.5 5t-2.5 2t-2 -1.5t-2 -4.5
q-2 2 -3.5 3t-2.5 1t-1.5 -2.5t0.5 -5.5q-3 2 -5 2.5t-3 -0.5t-0.5 -3t2.5 -4h-5t-3 -1q0 -2 1 -3.5t4 -3.5q-3 -1 -5 -2t-2 -2t1.5 -2t4.5 -2l-3.5 -3.5t-0.5 -2.5q0 -1 2.5 -1.5t5.5 0.5q-2 -3 -2.5 -5.5t0.5 -2.5q1 -1 3 -0.5t4 1.5v-5t1 -2q1 -1 3 0.5t4 4.5
q1 -4 2 -5.5t2 -1.5t2 1.5t2 4.5l3.5 -3.5t2.5 -0.5q1 0 1.5 2t-0.5 6q3 -2 5.5 -2.5t2.5 0.5q1 0 0.5 2t-1.5 5h5t2 1q1 1 -0.5 3t-4.5 4q4 0 5.5 1.5t1.5 2.5v0z" />
    <glyph glyph-name="uniE61C" unicode="e&#x36;&#x31;c" 
d="M194 825l191 95q-53 -13 -101.5 -37.5t-89.5 -57.5zM535 936v-58l-238 -117h238v-34h-435q-1 -1 -1.5 -2t-1.5 -2q-1 -2 -2.5 -4t-2.5 -4q-2 -2 -3 -4t-3 -4q-1 -2 -2 -3.5t-2 -3.5l-1 -1v-1v0v0h-1v0q-1 -3 -3 -6l-4 -6v-0.5t-1 -0.5l-3.5 -7l-3.5 -7q-1 0 -1 -1t-1 -1
q0 -1 -0.5 -1.5t-0.5 -1.5l-0.5 -0.5t-0.5 -1.5q-1 -1 -1.5 -2.5t-1.5 -3.5h-0.5t-0.5 -1t-0.5 -2t-1.5 -2l-1.5 -3l-1.5 -3q0 -1 -0.5 -1.5t-0.5 -1.5q-1 -1 -1.5 -2.5t-0.5 -2.5v0q-1 0 -1 -0.5v-1.5q-1 -1 -1.5 -2l-1.5 -3v-0.5v-1.5h-0.5t-0.5 -1t-1 -2.5t-1 -3.5
q-1 -1 -1.5 -3t-1.5 -3q-2 -5 -3.5 -9.5t-3.5 -9.5q0 -1 -0.5 -2t-1.5 -2q-1 -4 -2 -7.5t-2 -7.5q-1 -2 -2 -4.5t-1 -4.5q-1 -3 -2 -6.5t-2 -7.5q0 -2 -1 -4t-1 -4q-1 -5 -2.5 -10t-2.5 -11q0 -1 -0.5 -3t-0.5 -3q-1 -4 -1.5 -8t-1.5 -8q0 -2 -0.5 -4.5t-0.5 -4.5
q0 -3 -0.5 -7t-1.5 -7v-4.5t-1 -4.5v-8t-1 -8v-3v-4q0 -6 -0.5 -11.5t-0.5 -11.5v-8v-8l0.5 -0.5l0.5 -0.5q3 -103 44 -193t110 -156.5t160 -105.5q92 -38 195 -38q106 0 198 40q93 40 162.5 109t109.5 162t40 199q0 102 -38 193t-104 159.5t-155 110.5q-89 41 -190 46z
M637 464h30l10 34l11 38l11 -38l9 -34h62l-50 -41l10 -33l9 -34l-52 42l-51 -40l10 33l9 32l-50 41h32v0zM93 572v-162h-28v209h470v-34h-233l233 -116v-20l-273 136h-79l352 -175h-118l-324 162v0zM569 245l-52 -40l10 33l9 33l-50 40h62l10 34l11 38l11 -38l9 -34h62
l-50 -40l10 -34l10 -34l-52 42v0zM746 82l-26 -21l10 -33l9 -35l-52 42l-51 -40l10 34l9 32l-50 41h62l10 33l11 38l10 -38l10 -33h62l-24 -20v0zM865 303l-26 -21l10 -34l9 -34l-52 42l-24 -18l-27 -22l9 34l10 32l-50 41h62l10 33l11 38l10 -38l10 -33h62l-24 -20v0z
M534 936h-1v0h-10.5h-10.5h-7.5h-7.5h-2h-3h-0.5h-1.5h-4h-4q-1 -1 -2.5 -1h-2.5h-2h-2h-3t-4 -1h-2h-2h-2h-3q-2 -1 -4.5 -1t-4.5 -1l-301 -150l-1.5 -1.5t-1.5 -0.5q-3 -4 -6 -7.5t-6 -6.5l-3 -3l-2 -2h56l351 175v0zM688 132l-13 -42h-38l31 -25l-12 -39l32 24l31 -25
l-12 40l32 25h-40zM620 300h-40l-11 42l-13 -42h-38l31 -25l-12 -40l32 25l31 -26l-12 41zM656 388l32 24l31 -25l-12 40l32 26h-40l-11 42l-13 -42h-38l31 -26zM807 353l-13 -42h-38l31 -25l-12 -39l32 24l31 -26l-12 41l32 25h-40z" />
    <glyph glyph-name="uniE61D" unicode="e&#x36;&#x31;d" 
d="M873 787q-9 9 -18 17l-18 16h-0.5h-0.5q-51 42 -112.5 70.5t-129.5 39.5q-7 1 -14.5 2t-15.5 2q-13 1 -26 1.5t-26 0.5t-26 -0.5t-26 -1.5q-8 -1 -15.5 -2t-14.5 -2q-68 -11 -129.5 -39.5t-112.5 -70.5h-0.5h-0.5l-18 -16t-17 -17q-35 -34 -63 -75q-27 -41 -46.5 -87
t-29.5 -96q-11 -50 -11 -102q0 -106 40 -199t109.5 -162t162.5 -109q92 -40 198 -40t198 40q93 40 162.5 109t109.5 162t40 199q0 52 -11 102q-10 50 -29.5 96t-46.5 87q-28 41 -62 75v0zM673 654l-23 12l-24 -12l5 26l-19 18l26 4l12 23l12 -23l26 -4l-19 -18l4 -26v0z
M635 535l-23 12l-24 -12l5 26l-20 19l26 4l12 23l12 -24l26 -4l-19 -18l5 -26v0zM572 726l-23 13l-23 -13l4 27l-18 19l25 3l12 25l12 -25l25 -3l-18 -19zM483 829q7 0 14.5 -0.5t14.5 -2.5q-62 -10 -103.5 -58t-41.5 -112t41.5 -112t103.5 -58q-7 -1 -14.5 -2t-14.5 -1
q-73 0 -124 51t-51 122q0 72 51 122.5t124 50.5zM472 654l-24 12l-23 -12l4 26l-19 18l26 4l12 23l12 -23l26 -4l-19 -18zM510 535l-24 12l-23 -12l5 26l-19 18l26 4l12 24l12 -23l26 -4l-20 -19zM512 -74q-104 0 -195 39q-91 40 -159 108t-107 159q-40 91 -40 195v0h1002
q0 -104 -40 -195q-39 -91 -107 -159t-159 -108q-91 -39 -195 -39v0z" />
    <glyph glyph-name="uniE61E" unicode="e&#x36;&#x31;e" 
d="M96 722q-32 -46 -54.5 -99t-32.5 -111h298l-211 210v0zM1015 512q-10 58 -32.5 111t-54.5 99l-211 -210h298zM597 929v-297l210 210q-46 33 -99 55.5t-111 31.5zM427 929q-58 -9 -111 -31.5t-99 -55.5l210 -210v297zM597 -76q58 10 111 32t99 55l-210 211v-298zM928 131
q32 46 54.5 99.5t32.5 111.5h-298zM9 342q10 -58 32.5 -111.5t54.5 -99.5l211 211h-298v0zM427 -76v298l-210 -211q46 -33 99 -55t111 -32zM597 342v-1l275 -275v0v0l9.5 9.5t8.5 9.5l2.5 2.5l2.5 2.5q3 4 6 7.5t6 7.5l1.5 1.5l1.5 1.5l-233 234h-80v0zM151 66v0v0
q5 -4 9.5 -8.5t9.5 -8.5q1 -2 2.5 -3t3.5 -2q3 -3 6.5 -6t7.5 -6l2 -2t2 -1l233 233v80v0l-276 -276v0zM873 787v0v0q-5 5 -9.5 9t-9.5 9q-1 1 -2.5 2t-3.5 3q-3 3 -6.5 6t-7.5 6q-1 0 -2 1l-2 2l-233 -234v-79v0l276 275v0zM427 512v0l-275 275v0v0v0v0q-5 -4 -9.5 -9
t-8.5 -9q-1 -2 -2.5 -3t-2.5 -3q-3 -3 -6 -7t-6 -7q-1 -1 -1.5 -2t-1.5 -2l233 -233h80v0zM1022 440q0 2 -0.5 3t-0.5 2v0.5v0.5v2v2v2v2v2.5v3.5t-0.5 4t-0.5 4v0.5v1.5v0v0v2v2q-1 1 -1 3v4v1.5v0.5h-450v450h-1.5t-0.5 1h-4h-4q-1 0 -2 0.5l-1 0.5h-1v0h-1.5h-0.5h-4h-4
t-3 0.5t-3 0.5h-2h-2h-2h-2v0h-1h-2h-2h-7.5h-6.5h-6.5h-7.5h-2h-2h-1v0h-2h-2h-2h-2h-3t-3 -1h-4h-4h-1h-1h-0.5h-0.5l-1 -0.5t-2 -0.5h-4h-4l-0.5 -0.5t-1.5 -0.5v-449l1 -1h-451v-0.5v-1.5v-4t-1 -4v-1v-2v0v-1v-0.5v-0.5q0 -2 -0.5 -4.5t-0.5 -4.5v-2.5v-2.5v-2v-2v-2
v-2v-0.5v-0.5q0 -1 -0.5 -2t-0.5 -3v-6.5v-6.5v-7.5v-6.5q0 -1 0.5 -2t0.5 -3v0v-1v-2v-2v-2v-2v-2.5v-2.5q0 -2 0.5 -4t0.5 -4v-1.5v-0.5v-0.5v-0.5v-1.5v-1.5v0.5v0.5q0 -2 0.5 -5t0.5 -6h450v-450h1.5h1.5t3 -0.5t4 -0.5h2h1h1v0h1h1q2 -1 4 -1h4h2.5h3.5q1 0 2 -0.5
t2 -0.5h2h2v0h1h2h2h7.5h6.5h6.5h7.5h2h2h1v0h2h2t2 0.5t2 0.5h3h3h4t4 1h0.5h1.5v0h1h1h2q2 0 4 0.5t3 0.5h1.5h1.5v450h-1h451v6t1 5v-0.5v-0.5v1.5v1.5v0.5v0.5v0.5v1.5q0 2 0.5 4t0.5 4v2.5v2.5v2v2v2v2v1v0q0 1 0.5 2.5t0.5 2.5v6.5v7.5v6.5v6.5v0z" />
    <glyph glyph-name="uniE61F" unicode="e&#x36;&#x31;f" 
d="M258 -15l6 -4t7 -3q0 -1 1 -1.5t2 -0.5q3 -2 5 -3t5 -2q1 -1 2 -1.5t2 -0.5q3 -2 5.5 -3t5.5 -2q0 -1 1 -1t1 -1q4 -1 7 -2.5l7 -3.5q1 0 2 -0.5l1 -0.5q3 -1 5.5 -2t5.5 -2q1 -1 2 -1t2 -1q3 -1 5.5 -2t5.5 -2q1 0 1.5 -0.5t1.5 -0.5q4 -1 7.5 -2t6.5 -3h2h2q2 -1 5 -2
l6 -2q1 0 2 -0.5t3 -0.5q2 -1 5 -1.5t5 -1.5h2t2 -1q4 -1 7.5 -1.5t7.5 -1.5h1.5h1.5q3 -1 6 -1.5t6 -1.5h2h3q2 -1 5 -1.5t6 -0.5q1 0 2 -0.5t2 -0.5q4 0 7.5 -0.5t7.5 -1.5h1.5h0.5q3 0 6.5 -0.5t7.5 -0.5h2h2q3 0 6 -0.5t6 -0.5h2h2h8h8h8h8h2h2q3 0 6 0.5t6 0.5h2h2
q4 0 7.5 0.5t6.5 0.5h0.5h1.5q4 1 7.5 1.5t7.5 0.5q1 0 2 0.5t2 0.5q3 0 6 0.5t5 1.5h3h2q3 1 6 1.5t6 1.5h1.5h1.5q4 1 7.5 1.5t7.5 1.5q1 1 2 1h2q2 1 5 1.5t5 1.5q2 0 3 0.5t2 0.5q3 1 5.5 2t5.5 2h2h2q3 2 6.5 3t7.5 2l1 0.5t2 0.5q3 1 5.5 2t5.5 2q1 1 2 1t2 1
q3 1 5.5 2t4.5 2q1 0 2 0.5t2 0.5q3 2 6.5 3.5t6.5 2.5q1 1 2 1t1 1q3 1 5.5 2t5.5 3q1 0 2 0.5t2 1.5q3 1 5 2t5 3q1 0 1.5 0.5l1.5 1.5q4 1 7 3l6 4v0v0h-508v0v0zM88 143q4 -5 7.5 -10t7.5 -10v-0.5v-0.5l8 -10l8 -10v0v0q4 -5 8 -9.5t8 -9.5q1 0 1 -0.5t1 -0.5
q4 -5 8 -9l8 -8v-0.5t1 -0.5h716q1 0 1 0.5v0.5q4 4 8 8.5t8 8.5q1 0 1 0.5t1 0.5q4 5 8 9.5t8 9.5v0v0l8 10l8 10v0.5t1 0.5q3 5 6.5 10t7.5 10v0v0h-848v0v0v0zM18 301q1 -4 2 -8.5t3 -9.5v-1.5t1 -1.5q1 -5 2.5 -9t2.5 -9l0.5 -0.5t0.5 -1.5q1 -4 2.5 -8t3.5 -8
q0 -1 0.5 -1.5t0.5 -1.5q2 -4 3.5 -8t3.5 -9v-0.5t1 -0.5h934l0.5 0.5t0.5 1.5q2 4 3.5 8t3.5 8q0 1 0.5 1.5t0.5 1.5q2 4 3 8t3 8v1.5t1 0.5q1 5 2.5 9t2.5 9q1 1 1 1.5v1.5q2 5 3 9.5t2 8.5v0.5v0.5h-988v-0.5v-0.5v0zM1022 442q-1 1 -1 2.5v2.5v5.5v5.5v1.5v1.5h-509v79
h497v0v1q-1 4 -2 8.5t-2 8.5q-1 1 -1 2v2q-2 5 -3 9t-3 9v0.5v1.5q-2 4 -3 8t-3 8q0 1 -0.5 1.5t-0.5 1.5q-1 4 -2.5 8t-3.5 8q0 1 -0.5 1.5l-0.5 0.5h-472v80h431v0v0q-3 5 -6.5 10t-6.5 9q0 1 -0.5 1.5l-0.5 0.5q-3 5 -6.5 9.5t-7.5 9.5l-0.5 0.5l-0.5 0.5q-4 5 -7.5 9.5
t-7.5 8.5q0 1 -0.5 1t-0.5 1q-4 4 -8 8.5t-8 8.5v0.5v0.5h-370v79h273l-0.5 0.5t-1.5 0.5q-2 2 -5 3.5t-6 3.5q-1 1 -2 1.5l-1 0.5q-4 2 -7.5 4t-6.5 4v0v0q-4 2 -7.5 3.5t-6.5 3.5q-1 1 -2 1.5t-2 0.5q-3 2 -6 3t-6 3q-1 0 -1.5 0.5l-0.5 0.5q-4 2 -7.5 3.5t-7.5 2.5
q-1 1 -1.5 1t-1.5 1l-6 2l-6 2q-1 1 -2 1t-2 1q-3 1 -7 2.5t-8 2.5l-1 0.5l-1 0.5q-3 1 -6.5 2t-6.5 2q-1 0 -2 0.5t-2 0.5l-8 2l-8 2v0v0q-4 1 -7.5 2t-7.5 2q-1 0 -2 0.5t-3 0.5q-3 1 -6.5 1.5t-6.5 1.5h-1.5h-1.5q-4 1 -8 1.5t-8 1.5h-2h-2q-3 1 -6 1.5t-7 0.5h-2t-2 1
q-4 0 -8 0.5t-8 0.5h-1.5h-1.5q-3 0 -6.5 0.5t-7.5 0.5h-2h-2h-9h-8q-106 0 -198 -40q-93 -40 -162.5 -109t-109.5 -162t-40 -198v-11t1 -10v-1.5v-1.5q0 -5 0.5 -10t0.5 -10v-0.5v-1.5h1016v1.5v0.5q0 5 0.5 10t0.5 10v1.5v1.5q1 5 1 10v11v7.5v7.5v0zM450 869l8 16l7 -16
l18 -3l-13 -13l3 -19l-15 9l-16 -9l3 19l-12 13l17 3v0zM450 778l8 17l7 -17l18 -3l-13 -13l3 -18l-15 9l-16 -9l3 18l-12 13l17 3v0zM450 687l8 17l7 -17l18 -2l-13 -13l3 -19l-15 9l-16 -9l3 19l-12 13l17 2v0zM450 597l8 17l7 -17l18 -3l-13 -13l3 -18l-15 8l-16 -8l3 18
l-12 13l17 3v0zM450 501l8 16l7 -16l18 -3l-13 -13l3 -19l-15 9l-16 -9l3 19l-12 13l17 3v0zM382 818l8 16l7 -16l18 -3l-13 -13l3 -18l-15 8l-16 -8l3 18l-12 13l17 3v0zM382 727l8 17l7 -17l18 -3l-13 -13l3 -18l-15 9l-16 -9l3 18l-12 13l17 3v0zM382 636l8 17l7 -17
l18 -2l-13 -13l3 -19l-15 9l-16 -9l3 19l-12 13l17 2v0zM382 546l8 17l7 -17l18 -3l-13 -13l3 -18l-15 8l-16 -8l3 18l-12 13l17 3v0zM325 857l8 17l8 -17l17 -2l-12 -13l3 -19l-16 9l-15 -9l3 19l-13 13zM325 767l8 16l8 -16l17 -3l-12 -13l3 -18l-16 8l-15 -8l3 18l-13 13
l17 3v0zM325 676l8 17l8 -17l17 -3l-12 -13l3 -18l-16 9l-15 -9l3 18l-13 13zM325 585l8 17l8 -17l17 -2l-12 -13l3 -19l-16 9l-15 -9l3 19l-13 13l17 2v0zM325 489l8 17l8 -17l17 -3l-12 -13l3 -18l-16 9l-15 -9l3 18l-13 13zM257 806l8 17l8 -17l17 -2l-12 -13l3 -19
l-16 9l-15 -9l3 19l-13 13l17 2v0zM257 716l8 17l8 -17l17 -3l-12 -13l3 -18l-16 8l-15 -8l3 18l-13 13l17 3v0zM257 625l8 17l8 -17l17 -3l-12 -13l3 -18l-16 9l-15 -9l3 18l-13 13l17 3v0zM257 534l8 17l8 -17l17 -2l-12 -13l3 -19l-16 9l-15 -9l3 19l-13 13l17 2v0z
M189 767l8 16l8 -16l17 -3l-12 -13l3 -18l-16 8l-15 -8l3 18l-13 13l17 3v0zM189 676l8 17l8 -17l17 -3l-12 -13l3 -18l-16 9l-15 -9l3 18l-13 13l17 3v0zM213 455l-16 9l-15 -9l3 18l-13 13l17 3l8 17l8 -17l17 -3l-12 -13zM178 568l8 17l8 -17l17 -2l-13 -13l3 -19l-15 9
l-16 -9l3 19l-12 13l17 2v0zM127 710l8 17l8 -17l17 -3l-13 -13l3 -18l-15 9l-16 -9l3 18l-12 13l17 3v0zM121 625l8 17l8 -17l17 -3l-12 -13l3 -18l-16 9l-15 -9l3 18l-13 13l17 3v0zM121 534l8 17l8 -17l17 -2l-12 -13l3 -19l-16 9l-15 -9l3 19l-13 13l17 2v0zM59 580
l8 17l8 -17l17 -3l-13 -13l3 -18l-15 8l-16 -8l3 18l-12 13l17 3v0zM59 489l8 17l8 -17l17 -3l-13 -13l3 -18l-15 9l-16 -9l3 18l-12 13l17 3v0z" />
    <glyph glyph-name="uniE620" unicode="e&#x36;&#x32;&#x30;" 
d="M755 796v143l-58 -19q-58 -18 -149 -42.5t-202 -47.5q-112 -24 -220 -34v-881h772v881h-143zM724 893v-98h-414l21 1q22 2 71 11t128 29t194 57zM415 179h-124v447h124v-447v0zM607 179l-141 222l130 225h95l-128 -225h38l144 -222h-138z" />
    <glyph glyph-name="uniE621" unicode="e&#x36;&#x32;&#x31;" 
d="M676 812l-328 112l-344 -118v-859l209 72l-69 85l-11 14l-1 1v1q-14 18 -24 37.5t-16 40.5q-6 18 -9 37t-3 39q0 54 21 101q21 48 57 83t84 56q48 20 102 20h10h10v351v0l296 -101v-791l-161 55l-22 -27l199 -68l16 6l328 112v859l-344 -118v0zM521 146q11 15 19.5 31
t13.5 34q5 15 7.5 30.5t2.5 32.5q0 45 -17 84q-18 40 -47.5 69t-69.5 46t-86 17h-0.5h-0.5q-45 0 -85 -17t-69.5 -46.5t-46.5 -68.5q-18 -39 -18 -84q0 -17 2.5 -32.5t7.5 -30.5q5 -18 13.5 -34t19.5 -31l12 -14l63 -79l102 -130l166 209q3 3 6 7t5 7v0zM344 213
q-37 0 -63 26.5t-26 63.5t26 63t63 26t63.5 -26t26.5 -63t-26.5 -63.5t-63.5 -26.5v0z" />
    <glyph glyph-name="uniE622" unicode="e&#x36;&#x32;&#x32;" 
d="M4 935v-1016h1016v1016h-1016v0zM944 206h-864v653h864v-653zM708 769l-147 -265l-110 127l-103 -216l-88 110l-113 -244h730zM369 705q0 -32 -23 -55t-55 -23t-55 23t-23 55t23 54.5t55 22.5t55 -22.5t23 -54.5z" />
    <glyph glyph-name="uniE623" unicode="e&#x36;&#x32;&#x33;" 
d="M397 586v-326l274 163zM997 935h-993v-1016h1016v1016h-23v0zM864 867h95v-95h-95v95zM704 867h96v-95h-96v95v0zM544 867h96v-95h-96v95v0zM384 867h96v-95h-96v95zM225 867h95v-95h-95v95zM65 867h95v-95h-95v95zM160 -11h-95v96h95v-96zM320 -11h-95v96h95v-96z
M480 -11h-96v96h96v-96zM640 -11h-96v96h96v-96zM800 -11h-96v96h96v-96zM959 -11h-95v96h95v-96zM967 158h-910v538h910v-538z" />
    <glyph glyph-name="uniE624" unicode="beach" 
d="M676 800q37 8 61 13l24 5q-20 16 -37 24.5l-17 8.5q44 8 78.5 4l34.5 -4q-19 17 -37.5 30l-18.5 13q47 5 75 0.5l28 -4.5q-55 33 -104 41q-50 8 -93.5 -0.5t-80.5 -29.5q-37 -20 -67 -45q-41 27 -97 35.5t-123 -30.5l20 3t54 -1l-11 -7.5t-23 -17.5q-43 -6 -84 -17
q-41 -12 -74 -32t-56 -49q-22 -29 -30 -70l18.5 18.5t65.5 42.5l-0.5 -18.5t2.5 -40.5l24.5 22t72.5 42l-5 -15t-4 -36l43.5 17.5t105.5 41.5q-54 -37 -103 -86t-74 -109.5t-16 -131.5q8 -71 70 -152l-3 49.5t24 133.5l25.5 -23.5t61.5 -46.5l-3.5 52t19.5 118l15 -20.5
t46 -41.5l2 41t25 113q4 11 8 23t9 25q17 -49 34 -123q16 -73 14.5 -159.5t-28.5 -178.5q-28 -92 -98 -178h-35q16 19 29.5 38.5t25.5 40.5h-5h-4q-70 0 -135 -15t-122 -42.5t-105 -66.5q-48 -38 -83 -86h890q-25 34 -56 63t-67 52.5t-77 42.5q-41 18 -85 31q15 41 31 106
t17.5 146t-17.5 174q-20 93 -74 191q73 -61 113.5 -111.5l40.5 -50.5q14 30 15.5 53l1.5 23q56 -48 82 -93.5l26 -45.5q16 33 24.5 63l8.5 30q69 -62 94 -105.5l25 -43.5q6 86 -22 148q-27 61 -75.5 103t-110.5 67t-124 39v0z" />
    <glyph glyph-name="uniE625" unicode="campus" 
d="M1010 549l-479 296q-8 5 -19 5t-19 -4l-480 -287q-8 -5 -8 -12t9 -12l479 -309q8 -5 19 -5t19 5l377 235l-332 47q-11 -10 -27.5 -16.5t-36.5 -6.5q-32 0 -54.5 15t-22.5 36t22.5 35.5t54.5 14.5q29 0 50 -12t26 -30l347 -49q5 -1 8.5 -3t5.5 -6l62 39q8 5 8 12t-9 12v0z
M529 189q-7 -4 -17 -4t-17 4l-260 168l-7 -221q19 -26 49 -50q31 -24 68 -42.5t79 -29.5q43 -11 88 -11q46 0 89 11q43 12 80.5 30.5t67.5 43.5q30 24 50 51l-8 214l-262 -164v0zM914 460v-252q-9 -12 -14.5 -34t-5.5 -49q0 -39 11 -66t27 -27q15 0 26 27t11 66
q0 25 -4.5 45.5t-12.5 33.5v272q0 3 -1 5.5t-2 4.5l-41 -25l6 -1v0zM976 203q0 -4 -3 -7t-8 -3h-67q-4 0 -7 3t-3 7v0q0 5 3 8t7 3h67q5 0 8 -3t3 -8v0zM976 241q0 -4 -3 -7t-8 -3h-67q-4 0 -7 3t-3 7v0q0 4 3 7t7 3h67q5 0 8 -3t3 -7v0z" />
    <glyph glyph-name="uniE626" unicode="city" 
d="M303 723h102v210h-174v-439h72v229v0zM332 872h20v-20h-20v20zM332 830h20v-20h-20v20zM332 788h20v-20h-20v20zM289 872h21v-20h-21v20zM289 830h21v-20h-21v20zM270 642h-20v20h20v-20zM270 684h-20v20h20v-20zM270 726h-20v21h20v-21zM270 768h-20v20h20v-20zM270 810
h-20v20h20v-20zM270 852h-20v20h20v-20zM289 788h21v-20h-21v20zM981 220v101h-81v167h-93v-123h-30v362h-203v-276h-40v87h-84v167h-129v-229h-142v-242h-47v184h-130v-497h1020v299h-41v0zM85 164h-40v41h40v-41v0zM85 249h-40v40h40v-40v0zM85 333h-40v41h40v-41v0z
M260 50h-40v40h40v-40zM260 134h-40v41h40v-41zM260 218h-40v41h40v-41zM260 303h-40v40h40v-40zM260 387h-40v41h40v-41zM338 50h-40v40h40v-40v0zM338 134h-40v41h40v-41v0zM338 218h-40v41h40v-41v0zM338 303h-40v40h40v-40v0zM338 387h-40v41h40v-41v0zM416 50h-40v40
h40v-40zM416 134h-40v41h40v-41zM416 218h-40v41h40v-41zM416 303h-40v40h40v-40zM416 387h-40v41h40v-41zM646 220h-32v454h32v-454zM714 220h-31v454h31v-454zM951 151h-26v27h26v-27zM951 206h-26v27h26v-27zM951 262h-26v27h26v-27z" />
    <glyph glyph-name="uniE627" unicode="e&#x36;&#x32;&#x37;" 
d="M815 336q-3 3 -6 4t-7 1q-3 0 -6.5 -1t-5.5 -4l-53 -44l58 -49q13 -11 17.5 -27.5t-1.5 -32.5t-20 -26t-31 -10h-7v-136h170q8 0 14 5.5t6 14.5v136h19q6 0 11.5 3.5t7.5 9.5t0.5 12t-6.5 10zM183 183q-6 16 -1.5 32.5t17.5 27.5l58 49l-53 44q-3 3 -6 4t-7 1
q-3 0 -6.5 -1t-6.5 -4l-159 -134q-5 -4 -6.5 -10t0.5 -12t7 -9.5t11 -3.5h20v-136q0 -9 6 -14.5t14 -5.5h170v136h-7q-17 0 -31.5 10t-19.5 26v0zM774 191q3 9 0.5 18.5t-9.5 15.5l-248 209q-5 4 -10 5.5t-10 1.5t-10.5 -1.5t-9.5 -5.5l-66 -56v35q0 8 -5.5 13.5t-12.5 5.5
h-48q-7 0 -12.5 -5.5t-5.5 -13.5v-105l-37 -31l-61 -52q-8 -6 -10.5 -15.5t1.5 -18.5q3 -9 11 -14.5t18 -5.5h30v-212q0 -13 9 -22t22 -9h374q13 0 22 9t9 22v212h30q10 0 18 5.5t11 14.5v0zM1019 379l-146 274q-3 7 -9.5 11t-14.5 4q-8 1 -15 -2.5t-11 -10.5l-82 -123
l-245 380q-4 6 -10.5 9.5t-13.5 3.5q-8 0 -14.5 -3.5t-10.5 -10.5l-188 -303l-58 57q-5 5 -11 7t-13 1q-6 -1 -11.5 -4t-9.5 -9l-150 -228q-7 -11 -4.5 -22.5t12.5 -18.5q11 -7 22.5 -4.5t18.5 12.5l130 199l50 -48l-53 -88q-5 -9 -3 -18.5t11 -14.5q3 -2 6 -3t6 -1
q6 0 12 3t9 9l249 404l283 -447q3 -6 9 -9t12 -3q3 0 6 1l6 2q8 5 11 15t-2 18l-29 49l77 115l123 -231q4 -7 11 -11t14 -4q4 0 7.5 1t6.5 2q11 6 14.5 17.5t-2.5 22.5v0z" />
    <glyph glyph-name="uniE628" unicode="e&#x36;&#x32;&#x38;" 
d="M179 555q8 0 16 -3.5t14 -9.5l96 -95l179 179q7 7 15 10t16 3t16 -3t15 -10l176 -175l91 91q6 6 14 9t16 3q9 0 16.5 -3t14.5 -9l147 -148q0 1 -0.5 2t-1.5 1l-237 395q-13 22 -31 22t-31 -22l-39 -65l92 -155q2 -4 1 -8.5t-5 -6.5q-4 -3 -9 -1.5t-7 5.5l-93 156
q-1 0 -1 0.5v0.5l-125 176q-13 21 -31 21t-31 -21l-125 -176l-45 74q-13 22 -31 22t-31 -22l-237 -395q-1 0 -1.5 -0.5t-0.5 -1.5l147 147q6 6 14 9.5t17 3.5v0zM194 221q-5 12 -2.5 25t11.5 23l16 15l55 55l-95 96l-166 -166h48v-166h212v92h-39q-13 0 -24 7t-16 19v0z
M977 300l-134 134l-91 -91l59 -59l16 -15q9 -10 11.5 -23t-2.5 -25t-16 -19t-24 -7h-39v-151h213v210h53l-46 46v0zM753 281l-31 31l-31 31l-176 176l-281 -281h82v-300h398v300h82l-43 43v0zM448 81h-62v62h62v-62v0zM448 177h-62v62h62v-62v0zM544 81h-62v62h62v-62v0z
M544 177h-62v62h62v-62v0z" />
    <glyph glyph-name="uniE629" unicode="e&#x36;&#x32;&#x39;" 
d="M512 939q-78 0 -147 -30q-70 -30 -121 -81.5t-81 -120.5t-30 -148q0 -28 4.5 -56t12.5 -54q9 -31 23.5 -59.5t33.5 -53.5l19 -25l286 -396l286 396l10 12t9 13q19 25 33.5 53.5t24.5 59.5q8 26 12 54t4 56q0 79 -30 148t-81 120.5t-120 81.5t-148 30zM449 368h-103v376
h103v-376v0zM611 368l-119 187l18 29q17 30 37.5 65.5t37.5 65.5l17 29h81l-109 -189h33l121 -187h-117v0z" />
    <glyph glyph-name="uniE62A" unicode="doc" 
d="M870 936q37 -26 58.5 -66.5t21.5 -88.5v-709q0 -48 -21.5 -88.5t-58.5 -66.5q58 7 97.5 51t39.5 104v709q0 60 -39.5 104t-97.5 51zM905 72v709q0 65 -45.5 110.5t-110.5 45.5h-576q-65 0 -110.5 -45.5t-45.5 -110.5v-709q0 -65 45.5 -110.5t110.5 -45.5h576
q65 0 110.5 45.5t45.5 110.5zM849 72q0 -41 -29.5 -70t-70.5 -29h-576q-41 0 -70 29t-29 70v709q0 42 29 71t70 29h576q41 0 70 -29t29 -71v-709h1zM161 383h600v-34h-600v34zM161 285h600v-34h-600v34zM161 186h600v-34h-600v34zM161 88h600v-34h-600v34zM161 771h79v-287
h-79v287v0zM453 484l-93 142h-24l82 145h-61l-84 -145l91 -142h89z" />
    <glyph glyph-name="uniE62B" unicode="email" 
d="M512 490q6 0 11.5 1.5t9.5 4.5l472 364q-7 12 -20 19.5t-29 7.5h-888q-16 0 -29 -7.5t-20 -19.5l472 -364q4 -3 9.5 -4.5t11.5 -1.5v0zM573 430q-12 -10 -28 -15t-33 -5t-33 5t-28 15l-441 339v-563q0 -24 17 -41t41 -17h417l2 2t2 1v1v0q9 9 20 19t24 20q16 13 33 24.5
t33 21.5h1l1 0.5t2 1.5v0v0q24 14 53 26.5t60 21.5v36q0 32 17 58t48 37q3 2 7 3l8 2v0h1q1 1 2 1h2q4 1 7.5 1.5t6.5 0.5h2.5h2.5h2q4 0 8.5 -0.5t9.5 -1.5h1h1q1 -1 2 -1h2l6 -2t6 -3q2 -1 3.5 -1.5t2.5 -0.5v0v0q3 -2 5.5 -3.5t5.5 -3.5q1 0 2 -1l2 -2h1q3 -3 6 -5.5
t6 -5.5v0v0l122 -125v499l-441 -339v0zM1001 162l-166 170l-1.5 1.5l-1.5 1.5h-0.5h-0.5l-1.5 1.5t-1.5 0.5v0h-1q0 1 -1 1h-2v0.5v0.5h-2h-2h-0.5h-0.5h-2h-1q-1 0 -1 -0.5t-1 -0.5h-2t-2 -1q-7 -3 -10.5 -8.5t-3.5 -12.5v-84q-61 -14 -118 -39q-58 -26 -110.5 -60.5
t-99.5 -78.5q-47 -43 -86 -93q-1 -2 -2.5 -4t-2.5 -3q-2 -4 -3.5 -8t-0.5 -5q2 -2 6 -1t8 3q1 0 2 0.5t2 1.5q46 25 95 45q49 21 100 35.5t104 21.5t106 6v-90q0 -7 3.5 -12.5t10.5 -9.5q2 -1 4.5 -1h4.5q4 0 8.5 1.5t7.5 4.5l173 177q6 6 6 16t-6 16l-7 7v0z" />
    <glyph glyph-name="uniE62C" unicode="certificate" 
d="M1023 873h-1022v-829h645l-34 -113l67 42l42 -55l25 126h40l25 -126l42 55l67 -42l-34 113h137v829zM752 78l14 69l14 -69h-28zM767 181q-53 0 -91 37.5t-38 91.5q0 53 38 90.5t91 37.5t91 -37.5t38 -90.5q0 -54 -38 -91.5t-91 -37.5zM989 78h-113l-20 66l6 34l41 -5
l-5 41l41 8l-18 37l36 20l-28 30l28 31l-36 19l18 38l-41 8l5 41l-41 -5l-8 40l-37 -17l-20 36l-30 -29l-30 29l-20 -36l-38 17l-7 -40l-42 5l6 -41l-41 -8l18 -37l-37 -20l29 -30l-29 -31l37 -20l-18 -37l41 -8l-6 -41l42 5l5 -30l-21 -70h-621v758h954v-758v0zM144 622
q10 0 16.5 1.5t10.5 3.5l-4 18q-3 -2 -8.5 -3t-10.5 -1q-16 0 -24.5 9t-8.5 25q0 17 9.5 25t23.5 8q6 0 11 -1t8 -2l5 18q-3 2 -9.5 3t-15.5 1q-23 0 -39.5 -14t-16.5 -40q0 -22 13.5 -36.5t39.5 -14.5v0zM251 643h-42v24h37v19h-37v21h40v19h-63v-102h65v19zM289 664h7
q7 0 11 -3.5t6 -12.5q2 -10 4 -16t3 -8h24q-2 3 -4 11.5t-5 17.5q-1 7 -4.5 11.5t-8.5 7.5v0q6 2 12 8.5t6 16.5q0 7 -2.5 12.5t-7.5 9.5t-13 6t-20 2q-9 0 -17 -1t-13 -2v-100h23l-1 40v0zM289 709h4.5h6.5q8 0 12.5 -3.5t4.5 -10.5q0 -6 -5 -10t-13 -4h-10v28zM376 624h23
v82h28v20h-78v-20h27v-82zM439 726h23v-102h-23v102zM506 665h36v19h-36v23h39v19h-62v-102h23v41zM562 726h23v-102h-23v102zM654 622q9 0 16 1.5t10 3.5l-3 18q-4 -2 -9 -3t-11 -1q-15 0 -23.5 9t-8.5 25q0 17 9.5 25t22.5 8q6 0 11 -1t9 -2l4 18q-3 2 -9.5 3t-15.5 1
q-23 0 -39 -14t-16 -40q0 -22 13.5 -36.5t39.5 -14.5zM721 650h29l8 -26h25l-32 102h-30l-31 -102h23l8 26v0zM730 689q1 4 2.5 9.5t2.5 10.5v0q1 -5 2.5 -10.5t2.5 -9.5l7 -22h-23l6 22v0zM803 624h23v82h28v20h-78v-20h27v-82zM932 643h-42v24h37v19h-37v21h40v19h-63
v-102h65v19zM767 415q-44 0 -74.5 -31t-30.5 -74q0 -44 30.5 -75t74.5 -31q43 0 74 31t31 75q0 43 -31 74t-74 31zM503 448h-397q-6 0 -10 -4t-4 -10q0 -5 4 -9t10 -4h397q6 0 10 4t4 9q0 6 -4 10t-10 4v0zM503 371h-397q-6 0 -10 -4t-4 -10q0 -5 4 -9t10 -4h397q6 0 10 4
t4 9q0 6 -4 10t-10 4v0zM503 293h-397q-6 0 -10 -4t-4 -9q0 -6 4 -10t10 -4h397q6 0 10 4t4 10q0 5 -4 9t-10 4v0zM304 216h-198q-6 0 -10 -4t-4 -9q0 -6 4 -10t10 -4h198q6 0 10 4t4 10q0 5 -4 9t-10 4z" />
    <glyph glyph-name="uniE62D" unicode="e&#x36;&#x32;d" 
d="M700 226v306h-376v-234h-322v-377h1020v305h-322v0zM546 226h-67v161h-53v37l62 46h58v-244v0v0zM324 932h102v-367h-102v367zM698 565l-119 182h-32l107 185h-79l-107 -185l116 -182h114z" />
    <glyph glyph-name="uniE62E" unicode="e&#x36;&#x32;e" 
d="M1 825h220v-796h-220v796v0zM485 423l229 402h-170l-232 -402l252 -394h246l-256 394h-69zM904 459v124h-67v-124h-119l38 -64h81v-125h67v125h119v64h-119z" />
    <glyph glyph-name="uniE62F" unicode="e&#x36;&#x32;f" 
d="M970 882h-916q-20 0 -34.5 -18t-14.5 -43v-607q0 -25 14.5 -42.5t34.5 -17.5h345v-61l-10 -23t-100 -64q-2 -1 -4 -3.5l-2 -2.5v-29h468v25q1 0 1 0.5t-1 1.5v2l-1 2t-3 3q-95 41 -106 63.5l-11 22.5v63h340q21 0 35 17.5t14 43.5v606q0 26 -14.5 43.5t-34.5 17.5v0z
M967 311q0 -7 -5.5 -12.5t-13.5 -5.5h-872q-8 0 -13.5 5.5t-5.5 12.5v500q0 8 5.5 13.5t13.5 5.5h872q8 0 13.5 -5.5t5.5 -13.5v-500zM346 498l-32 -128l128 32zM705 666v0v0v0v0l2 2h-1q8 11 1 31t-26 39t-38.5 25.5t-30.5 -1.5l-1 1l-238 -238l96 -96l236 237v0z" />
    <glyph glyph-name="uniE630" unicode="e&#x36;&#x33;&#x30;" 
d="M885 390q53 53 77 113q25 61 33.5 113t6.5 86l-2 34l-34 2q-35 2 -86.5 -6.5t-112.5 -32.5q-61 -25 -113 -78q-25 -25 -41.5 -50t-25.5 -50q-2 53 -25.5 116t-85.5 126q-69 68 -148 100t-146.5 43t-112.5 9l-45 -2l-2 -45t9 -112.5t43 -146.5t100 -147q59 -59 119 -83
q59 -24 110.5 -27.5t90.5 5.5q38 8 55 15q-4 -89 -9 -154q-5 -66 -10 -113.5t-9 -78.5q-5 -31 -8 -49h-217v-39h542v39h-216q-4 17 -8 45t-8.5 70t-8.5 100q-5 58 -9 135q0 -1 0.5 -1.5l0.5 -0.5l26 -9q27 -10 69.5 -11t95.5 16t105 69v0zM134 824q127 -42 207 -112
q79 -70 123.5 -137t59.5 -116l16 -49q-43 96 -112 172q-69 77 -134.5 130.5t-112.5 82.5l-47 29v0zM586 387l12 24q13 25 43.5 59.5t81.5 71.5q51 38 126 63l-22 -11q-21 -12 -57.5 -37.5t-84.5 -67.5q-47 -42 -99 -102z" />
    <glyph glyph-name="uniE631" unicode="english" 
d="M633 275q0 -13 4 -23.5t12 -18.5q7 -8 17.5 -12t24.5 -4q16 0 29.5 5.5t24.5 15.5q6 7 9.5 17.5t3.5 25.5v76q-30 -3 -53 -9.5t-39 -17.5q-17 -11 -25 -24.5t-8 -30.5v0zM512 939q-106 0 -199 -41q-94 -40 -163.5 -109.5t-109.5 -162.5t-40 -199t40 -200
q40 -93 109.5 -162.5t163.5 -109.5q93 -40 199 -40t199 40q94 40 163.5 109.5t109.5 162.5q40 94 40 200t-40 199t-109.5 162.5t-163.5 109.5q-93 41 -199 41zM470 203l-49 144h-162l-47 -144h-61l156 457h70l156 -457h-63v0zM855 203q-9 -3 -17.5 -5t-16.5 -2
q-16 0 -30.5 10t-27.5 29q-28 -21 -53.5 -31.5t-49.5 -10.5q-18 0 -32.5 5t-24.5 15q-11 9 -16.5 22t-5.5 30q0 22 10 39t31 29q20 13 54 22.5t82 17.5v47q0 22 -4 37t-13 24q-11 11 -26 17t-34 6q-25 0 -37.5 -11t-12.5 -32q0 -6 1 -13.5t4 -15.5q1 -3 1.5 -6.5t0.5 -5.5
q0 -4 -1.5 -5.5t-5.5 -1.5q-9 0 -17.5 2t-15.5 6q-7 3 -11 7.5t-4 9.5q0 11 6.5 24t19.5 27q17 18 40 27.5t52 9.5q26 0 46.5 -6t34.5 -17q15 -12 22 -28.5t7 -37.5v-150q0 -18 2 -31t7 -20q4 -8 11.5 -12t17.5 -4q3 0 5 0.5t4 0.5l6 1.5t3 0.5q4 0 5.5 -1.5t0.5 -4.5
q0 -3 -4.5 -6.5t-13.5 -7.5v0zM340 608h-1q-5 -20 -10.5 -41t-12.5 -42l-45 -132h139l-46 132q-7 22 -12.5 42.5t-11.5 40.5v0z" />
    <glyph glyph-name="uniE632" unicode="e&#x36;&#x33;&#x32;" 
d="M512 939q-106 0 -199 -41q-94 -40 -163.5 -109.5t-109.5 -162.5t-40 -199t40 -200q40 -93 109.5 -162.5t163.5 -109.5q93 -40 199 -40t199 40q94 40 163.5 109.5t109.5 162.5q40 94 40 200t-40 199t-109.5 162.5t-163.5 109.5q-93 41 -199 41zM864 291
q-7 -42 -30.5 -68.5t-49.5 -21.5v0v0q-6 -17 -21.5 -26.5t-33.5 -5.5l-23 4q-20 3 -31.5 20t-8.5 37l33 186q4 21 20.5 32.5t37.5 8.5l7 -2v4.5v4.5q0 52 -20 98q-19 46 -53.5 80.5t-80.5 53.5q-46 20 -98 20t-98 -20q-46 -19 -80.5 -53.5t-54.5 -80.5q-19 -46 -19 -98v-4.5
v-4.5l7 2q21 3 37.5 -8.5t20.5 -32.5l33 -186q3 -20 -8.5 -37t-32.5 -20l-22 -4q-18 -4 -33.5 5.5t-21.5 26.5v0v0q-26 -5 -49.5 21.5t-30.5 68.5t6 75t38 37v0h1q-1 14 6 25.5t18 18.5q0 4 -0.5 8.5t-0.5 8.5q0 59 23 110q22 52 60.5 90.5t90.5 60.5q51 23 110 23t110 -23
q52 -22 90.5 -60.5t60.5 -90.5q23 -51 23 -110q0 -4 -0.5 -8.5t-0.5 -8.5q11 -7 18 -18.5t7 -25.5v0v0q25 -4 38 -37t6 -75v0z" />
    <glyph glyph-name="uniE633" unicode="e&#x36;&#x33;&#x33;" 
d="M512 939q-106 0 -199 -41q-94 -40 -163.5 -109.5t-109.5 -162.5t-40 -199t40 -200q40 -93 109.5 -162.5t163.5 -109.5q93 -40 199 -40t199 40q94 40 163.5 109.5t109.5 162.5q40 94 40 200t-40 199t-109.5 162.5t-163.5 109.5q-93 41 -199 41zM775 216q0 -38 -27 -65
t-65 -27h-342q-38 0 -65 27t-27 65v421q0 38 27 65.5t65 27.5h342q38 0 65 -27.5t27 -65.5v-421v0zM683 696h-342q-24 0 -41.5 -17.5t-17.5 -41.5v-421q0 -24 17.5 -41.5t41.5 -17.5h342q24 0 41.5 17.5t17.5 41.5v421q0 25 -17.5 42t-41.5 17zM357 219q-10 0 -16.5 7
t-6.5 16q0 10 6.5 16.5t16.5 6.5q9 0 16 -6.5t7 -16.5q0 -9 -7 -16t-16 -7zM357 278q-10 0 -16.5 6.5t-6.5 16.5q0 9 6.5 16t16.5 7q9 0 16 -7t7 -16q0 -10 -7 -16.5t-16 -6.5zM357 337q-10 0 -16.5 6.5t-6.5 16.5q0 9 6.5 16t16.5 7q9 0 16 -7t7 -16q0 -10 -7 -16.5
t-16 -6.5zM531 232h-133v20h133v-20zM531 291h-133v20h133v-20zM531 349h-133v20h133v-20zM690 441h-356v20h356v-20v0zM690 499h-356v20h356v-20v0zM690 557h-356v21h356v-21v0zM690 616h-356v20h356v-20v0z" />
    <glyph glyph-name="uniE634" unicode="e&#x36;&#x33;&#x34;" 
d="M512 939q-106 0 -199 -41q-94 -40 -163.5 -109.5t-109.5 -162.5t-40 -199t40 -200q40 -93 109.5 -162.5t163.5 -109.5q93 -40 199 -40t199 40q94 40 163.5 109.5t109.5 162.5q40 94 40 200t-40 199t-109.5 162.5t-163.5 109.5q-93 41 -199 41v0zM626 427h-73v-266h-110
v266h-55v92h55v55q0 56 26.5 87.5t92.5 31.5h74v-92h-46q-26 0 -31.5 -9.5t-5.5 -27.5v-45h83l-10 -92v0z" />
    <glyph glyph-name="uniE635" unicode="aircon" 
d="M892 916h-760q-53 0 -90.5 -36.5t-39.5 -88.5v-339q0 -14 9.5 -23.5t22.5 -9.5h956q13 0 22.5 9.5t9.5 23.5v334q0 54 -38 92t-92 38v0zM683 831q0 9 6.5 15.5t15.5 6.5h223q9 0 15 -6.5t6 -15.5v-82q0 -9 -6 -15t-15 -6h-223q-9 0 -15.5 6t-6.5 15v82v0zM178 851
q11 0 18.5 -7.5t7.5 -18.5q0 -10 -7.5 -17.5t-18.5 -7.5q-10 0 -17.5 7.5t-7.5 17.5q0 11 7.5 18.5t17.5 7.5zM97 851q10 0 17.5 -7.5t7.5 -18.5q0 -10 -7.5 -17.5t-17.5 -7.5q-11 0 -18.5 7.5t-7.5 17.5q0 11 7.5 18.5t18.5 7.5zM921 455h-818q-17 0 -31 7t-24 18h928
q-10 -11 -24 -18t-31 -7v0zM992 523q0 -6 -1 -11.5t-3 -10.5h-952q-2 5 -3 11.5t-1 12.5h960v-2v0zM992 545h-960v25h960v-25zM992 590h-960v8q0 7 5 12.5t12 5.5h926q7 0 12 -5.5t5 -12.5v-8zM295 393h-76q0 -13 -5 -42t-20.5 -67.5t-44.5 -82.5q-29 -45 -79 -89l-40 53
l-19 -145l145 -19l-39 51q60 52 95 105q35 54 53.5 100.5t23.5 82.5q6 36 6 53zM954 112q-50 44 -79 89q-29 44 -44.5 82.5t-20.5 67.5t-5 42h-76q0 -17 6 -53q5 -36 23.5 -82.5t53.5 -100.5q35 -53 95 -105l-39 -51l145 19l-19 145l-40 -53v0zM550 393h-76v-353h-65
l103 -103l103 103h-65v353z" />
    <glyph glyph-name="uniE636" unicode="drawing" 
d="M889 599q-36 -35 -72 -67q-35 -32 -68 -61t-64 -53q-31 -25 -58 -45q-8 -54 -48 -89.5t-75 -39.5q-7 -1 -18 -5.5t-23 -12.5q1 -5 1.5 -10.5t0.5 -10.5q0 -39 -27 -66t-65 -27t-65 27t-27 66q0 35 23 60.5t57 30.5q23 107 74.5 140.5t79.5 37.5q21 30 50 65q28 35 62 73
t72 78t79 81q2 2 6.5 6t9.5 10q-31 33 -69 60q-39 27 -83 46t-92 29q-49 11 -100 11q-92 0 -173 -34t-142 -92t-97 -135t-36 -163q0 -87 29 -169q28 -81 78.5 -151.5t121.5 -125.5t156 -88q46 -18 102 -33t113.5 -19.5t112.5 6.5q56 11 100 46q48 39 66 111.5t-47 167.5
q-22 32 -16 63q6 32 22.5 65t33.5 70q18 36 19 78q1 18 -0.5 35t-3.5 34zM381 838q38 0 65 -27t27 -65t-27 -65t-65 -27t-65 27t-27 65t27 65t65 27v0zM201 395q-39 0 -66 27t-27 65t27 65t66 27q38 0 65 -27t27 -65t-27 -65t-65 -27v0zM687 22q-38 0 -65 27t-27 65
q0 39 27 66t65 27t65 -27t27 -66q0 -38 -27 -65t-65 -27zM1014 868q-16 17 -68.5 -10.5t-178.5 -152.5q-34 -34 -65 -66.5t-58 -62.5q16 -9 35.5 -27.5t31.5 -51.5q32 28 66.5 60t69.5 67q126 125 155 176.5t12 67.5v0zM625 554q-27 -31 -49.5 -59t-38.5 -51v0l-60 -23
t-68 -179q23 23 52 40.5t49 20.5q22 2 51 29.5t30 68.5q20 14 45 33.5t52 42.5q-10 36 -30 53.5t-33 23.5z" />
    <glyph glyph-name="uniE637" unicode="bbq" 
d="M1007 631h-990q0 -66 22 -127t62.5 -112t96.5 -91q56 -39 123 -63l-127 -262q-7 -16 -1.5 -32t20.5 -24q5 -2 9.5 -3t8.5 -1q12 0 22 6.5t16 17.5l133 275q20 -4 40.5 -6.5t41.5 -3.5v-183q0 -12 8 -20t20 -8t20 8t8 20v183q21 1 41.5 3.5t40.5 6.5l133 -275
q6 -11 16 -17.5t22 -6.5q4 0 8.5 1t9.5 3q15 8 20.5 24t-1.5 32l-127 262q67 24 123 63q56 40 96.5 91t62.5 112t22 127v0zM101 567h102q0 -44 10 -85t27.5 -77.5t42.5 -66.5t55 -52q-51 14 -95 42q-43 27 -74.5 64t-49.5 81q-18 45 -18 94v0zM262 688q5 -5 11.5 -9t15.5 -7
l5 -1q0 -1 1 -1h2l5 -1l10 13l-5 4q-6 6 -9.5 12t-4.5 12t0 13t5 14l4 8t6 8q3 4 7 8t8 9q4 4 9 8.5t10 9.5l9.5 9.5l9.5 9.5t9.5 10.5t8.5 10.5q4 6 7 11.5t6 11.5q3 5 4.5 11t1.5 12q1 6 0.5 12t-2.5 11q-1 6 -4.5 11.5t-8.5 10.5q-5 4 -12 8t-15 7l-3 1q-2 1 -3 1h-2
l-6 1l-9 -13l5 -4q6 -6 9.5 -11.5t4.5 -11.5t0 -13.5t-4 -14.5q-2 -4 -4.5 -8t-5.5 -8q-4 -4 -7.5 -8.5t-8.5 -8.5l-8.5 -8.5l-9.5 -9.5l-10 -10t-9 -10q-5 -5 -9.5 -10t-8.5 -10q-4 -6 -7.5 -11.5t-6.5 -11.5q-2 -5 -3.5 -11t-2.5 -12t-0.5 -11.5t2.5 -11.5q1 -6 4.5 -11.5
t8.5 -9.5v0zM451 688q5 -5 12 -9t15 -7l5 -1q1 -1 1.5 -1h1.5l5 -1l10 13l-4 4q-6 6 -9.5 12t-5.5 12q-1 6 0.5 13t4.5 14q2 4 4.5 8t5.5 8t7 8t8 9q5 4 9.5 8.5l9.5 9.5t10 9.5t9 9.5q5 5 9.5 10.5t8.5 10.5q4 6 7.5 11.5t5.5 11.5q3 5 4.5 11t2.5 12t0.5 12t-2.5 11
q-2 6 -5.5 11.5t-8.5 10.5q-5 4 -11.5 8t-15.5 7l-3 1q-1 1 -2.5 1h-2.5l-5 1l-10 -13l5 -4q6 -6 10 -11.5t5 -11.5t-0.5 -13.5t-4.5 -14.5q-2 -4 -4.5 -8t-5.5 -8t-7 -8.5t-8 -8.5q-5 -4 -9.5 -8.5l-9.5 -9.5t-9.5 -10t-9.5 -10t-9.5 -10t-8.5 -10q-4 -6 -7.5 -11.5
t-5.5 -11.5q-3 -5 -4.5 -11t-2.5 -12t-0.5 -11.5t2.5 -11.5t5 -11.5t8 -9.5v0zM641 688q4 -5 11 -9t15 -7l5 -1q1 -1 2 -1h1l6 -1l9 13l-4 4q-6 6 -9.5 12t-4.5 12t0 13t5 14q1 4 3.5 8t5.5 8q4 4 7.5 8t8.5 9l8.5 8.5l9.5 9.5t10 9.5t9 9.5q5 5 9.5 10.5t8.5 10.5
q4 6 7.5 11.5t6.5 11.5q2 5 3.5 11t2.5 12t0.5 12t-2.5 11q-2 6 -5.5 11.5t-7.5 10.5q-5 4 -12 8t-15 7l-4 1q-1 1 -2.5 1h-2.5l-5 1l-9 -13l4 -4q6 -6 10 -11.5t5 -11.5t0 -13.5t-5 -15.5q-1 -3 -3.5 -7t-5.5 -8q-4 -4 -8 -8.5t-8 -8.5t-9 -8.5t-9 -9.5l-10 -10l-10 -10
t-9 -10l-8 -10q-5 -6 -8 -11.5t-6 -11.5q-2 -5 -4 -11t-2 -12q-1 -6 -0.5 -12t1.5 -11q2 -6 5.5 -11.5t8.5 -9.5v0z" />
    <glyph glyph-name="uniE638" unicode="bike" 
d="M225 441q-46 0 -86 -17t-70 -47t-47 -70t-17 -86q0 -45 17 -85t47 -70t70 -47q40 -18 86 -18q45 0 85 18q40 17 70 47t47 70q18 40 18 85q0 46 -18 86q-17 40 -47 70t-70 47t-85 17v0zM225 38q-76 0 -129.5 54t-53.5 129q0 76 53.5 129.5t129.5 53.5q75 0 129 -53.5
t54 -129.5q0 -75 -54 -129t-129 -54zM800 441q-8 0 -15 -0.5t-14 -1.5l-15 85q6 4 10 10.5t4 14.5q0 12 -8.5 21t-20.5 9h-118l-94 144q-2 3 -4.5 5.5t-5.5 4.5q-15 8 -33 8.5t-32 -13.5q-2 -3 -22 -23q-19 -20 -45.5 -46.5t-54.5 -55.5l-50 -50q-3 -3 -5.5 -6.5t-4.5 -6.5
q-10 -19 -3.5 -40t25.5 -30l172 -91v-191q0 -17 12.5 -29.5t30.5 -12.5t30.5 12.5t12.5 29.5v224v2t-1 2q2 15 -5.5 29t-21.5 22l-99 51l98 97l59 -82q4 -6 10.5 -10t14.5 -4h127l15 -84q-72 -17 -120.5 -76.5t-48.5 -137.5q0 -45 17 -85q18 -40 47.5 -70t69.5 -47t86 -17
q45 0 85 17t70 47t47 70t17 85q0 46 -17 86t-47 69.5t-70 47.5q-40 17 -85 17v0zM800 39q-76 0 -129.5 53.5t-53.5 128.5q0 64 39.5 113.5t99.5 63.5l33 -179q0 -4 3.5 -6.5t7.5 -2.5h0.5h1.5q4 1 6.5 5t2.5 8l-33 179q5 1 10.5 1.5t11.5 0.5q75 0 128.5 -53.5t53.5 -129.5
q0 -75 -53.5 -128.5t-128.5 -53.5v0zM677 778q0 -30 -22 -52t-52 -22q-31 0 -52.5 22t-21.5 52q0 31 21.5 52.5t52.5 21.5q30 0 52 -21.5t22 -52.5z" />
    <glyph glyph-name="uniE639" unicode="bikestorage" 
d="M983 406q-24 35 -59 57.5t-77 29.5q-9 2 -18.5 2.5t-18.5 0.5q-19 0 -36.5 -3t-33.5 -9l-51 112v0h-1l18 33q1 1 1 1.5v1.5l40 -7q2 0 3.5 -0.5t3.5 -0.5q13 0 23.5 9t13.5 23q2 15 -7 28t-24 15l-66 -5q-25 -1 -50.5 -1.5t-28.5 -15.5q-3 -16 6 -23.5t24 -10.5l23 -4
l-15 -29l-246 44l71 119l33 4q8 0 13 6.5t4 13.5q0 8 -6 13t-14 4l-44 -4q-5 0 -8.5 -2.5t-6.5 -6.5l-128 -222q-12 6 -24.5 10t-26.5 6q-9 2 -18 2.5t-19 0.5q-76 0 -135 -49t-72 -125q-8 -43 2 -84t33 -74t58 -56t78 -31q9 -1 18.5 -2t18.5 -1q77 0 135.5 49.5t72.5 124.5
q7 42 -2 82.5t-33 75.5q-11 16 -24.5 29t-28.5 24l27 47l128 -280q0 -1 0.5 -2t1.5 -2v0v0q1 -2 2.5 -3t2.5 -2h0.5h0.5v0h1q0 -1 0.5 -1h1.5q0 -1 0.5 -1h1.5v0h1l77 -14q-4 -40 8 -78q11 -38 34.5 -68t56.5 -51q34 -22 74 -29q10 -1 19 -2t18 -1q77 0 136 49.5t72 124.5
q7 42 -2 82.5t-33 75.5v0zM376 486q20 -28 27 -61.5t1 -67.5q-11 -62 -59 -102.5t-111 -40.5q-8 0 -15.5 0.5t-15.5 2.5q-70 12 -111 71t-29 129q11 63 59 103t111 40q8 0 15.5 -0.5t15.5 -1.5q10 -2 19.5 -5t18.5 -7l-85 -149q-4 -7 -1.5 -14.5t8.5 -11.5q3 -1 5 -2t5 -1
q5 0 9 2.5t7 7.5l85 150q12 -9 22 -19t19 -23v0zM705 469q-35 -21 -61 -54t-38 -75l-51 10l111 205l39 -86v0zM721 434l57 -124l-134 24q9 32 29.5 58t47.5 42v0zM634 575l-107 -197l-107 235zM981 255q-11 -62 -59.5 -102.5t-111.5 -40.5q-7 0 -15 0.5t-15 2.5
q-66 11 -106.5 63.5t-36.5 118.5l170 -30q1 -1 1.5 -1h1.5v0v0q9 0 14.5 5.5t5.5 13.5q0 4 -1.5 7t-3.5 5l-69 153q13 4 26.5 6t27.5 2q7 0 15 -0.5t15 -1.5q34 -6 63 -24.5t49 -47.5q20 -28 27.5 -61.5t1.5 -67.5zM424 210q0 2 -2 4t-4 2q-3 1 -5.5 0.5t-4.5 -2.5
q-35 -36 -80 -55t-94 -19q-51 0 -96.5 19.5t-80.5 56.5q-2 2 -4.5 2.5t-4.5 -0.5q-3 0 -4.5 -2t-2.5 -4l-38 -161v-4.5t2 -3.5q1 -2 3 -3t4 -1h441q2 0 4 1t3 3q2 1 2.5 3.5t-0.5 4.5l-38 159v0z" />
    <glyph glyph-name="uniE63A" unicode="cafe" 
d="M31 45q46 -40 99.5 -55.5t134.5 -15.5h489q81 0 135.5 15.5t100.5 55.5l14 13h-987l14 -13v0zM296 127v-47h330v47q26 15 49 34t44 42h1.5h0.5q34 0 91 7t98 35q56 38 76.5 81t20.5 81q0 30 -22 73t-83 43q-10 0 -22 -1.5t-25 -5.5l2 22t1 22h-794q3 -72 21 -138
t48.5 -121.5t71.5 -100.5q42 -44 91 -73v0zM842 438q1 1 3.5 2t4.5 2q19 9 32 11.5t20 2.5q10 0 16 -3t11 -10q6 -9 8.5 -19.5t2.5 -16.5q0 -30 -17 -57t-51 -49q-15 -11 -41 -18t-58 -10q23 36 40.5 77.5t28.5 87.5v0zM247 595l54 30l-20.5 40.5t-2.5 51.5q19 11 63 0.5
t127 -25.5t109.5 56t-46.5 145l27.5 -57.5t-7.5 -87.5q-36 -29 -87 -16.5t-87 22.5q-66 19 -124.5 11t-40.5 -79l35 -91v0zM557 690l34 -46l27 24t43 58t8 79t-54 81l26 -67t-84 -129v0z" />
    <glyph glyph-name="uniE63B" unicode="e&#x36;&#x33;b" 
d="M974 543h-182l34 -24l-77 -90l-23 17v-463h297v350zM863 93h-67v55h67v-55zM863 178h-67v54h67v-54zM863 262h-67v54h67v-54zM967 93h-67v55h67v-55zM967 178h-67v54h67v-54zM967 262h-67v54h67v-54zM197 519l34 24h-184l-46 -210v-350h297v463l-23 -17l-78 90v0zM124 93
h-67v55h67v-55zM124 178h-67v54h67v-54zM124 262h-67v54h67v-54zM228 93h-67v55h67v-55zM228 178h-67v54h67v-54zM228 262h-67v54h67v-54zM333 463v-524h106v220q0 30 21.5 51.5t51.5 21.5t51.5 -21.5t21.5 -51.5v-220h106v524l-179 141l-179 -141v0zM591 429q0 -33 -23 -56
t-56 -23t-56 23t-23 56q0 32 23 55.5t56 23.5t56 -23.5t23 -55.5zM512 641l218 -172l43 55l-253 200v69q40 -1 66.5 19.5t60.5 -6.5v95q-43 34 -72 0t-71 0v-178l-253 -199l43 -55z" />
    <glyph glyph-name="uniE63C" unicode="classroon" 
d="M589 200q0 30 -22 55.5t-53 25.5q-33 0 -55.5 -24t-22.5 -57t21.5 -58t56.5 -25q33 0 54 25.5t21 57.5v0zM919 84h-155q-40 0 -54 -32t-27 -62q-16 38 -28 66t-58 28h-166q-38 0 -56 -31t-36 -58q-17 39 -32 63.5t-64 24.5h-135q-49 0 -60.5 -16t-32.5 -58
q-4 -8 -8.5 -19.5t-4.5 -20.5v-36h1020v34q0 32 -8 46t-25 42q-12 19 -30.5 24t-39.5 5v0zM934 201q0 33 -25 56.5t-57 23.5q-31 0 -56 -23.5t-25 -56.5t24 -57t57 -24t57.5 24t24.5 57zM177 281q-32 0 -57 -23.5t-25 -56.5t24.5 -57t57.5 -24q34 0 56.5 23.5t22.5 57.5
q0 35 -22.5 57.5t-56.5 22.5v0zM237 496h68l112 90q8 5 13 14.5t5 19.5q0 13 -10.5 21.5t-22.5 8.5q-17 0 -56 -35.5t-57 -46.5h-183q-57 0 -81 -26t-24 -82v-138h236v174v0zM137 596q33 0 57 22.5t24 55.5q0 34 -23.5 57.5t-57.5 23.5t-56.5 -24t-22.5 -57q0 -32 23.5 -55
t55.5 -23v0zM962 921h-450q-33 0 -48 -15.5t-15 -47.5v-198q11 5 43 23q33 17 68.5 36t66.5 35q30 15 38 17h1l5 -3q-2 -5 -34 -26q-31 -21 -70 -45t-74 -45q-35 -22 -44 -28v-119q0 -26 16.5 -40t41.5 -14h464q26 0 39 17.5t13 41.5v351q0 28 -17 44t-44 16v0z" />
    <glyph glyph-name="uniE63D" unicode="computer" 
d="M965 926h-906q-21 0 -35.5 -17.5t-14.5 -43.5v-575q0 -25 14.5 -42.5t35.5 -17.5h335v-45l-10 -23.5t-100 -63.5q-2 -1 -3.5 -3.5l-1.5 -2.5v-29h468v24v1.5v1.5v2l-1.5 2t-3.5 3q-94 41 -105.5 63.5l-11.5 22.5v47h340q21 0 35.5 17.5t14.5 42.5v575q0 26 -14.5 43.5
t-35.5 17.5zM512 272q-13 0 -22 9t-9 22t9 22t22 9t22 -9t9 -22t-9 -22t-22 -9zM962 387q0 -7 -5.5 -12.5t-12.5 -5.5h-864q-7 0 -12.5 5.5t-5.5 12.5v468q0 8 5.5 13.5t12.5 5.5h864q7 0 12.5 -5.5t5.5 -13.5v-468v0zM193 5l-89 -52l2 -26h810l4 26l-98 52h-629z" />
    <glyph glyph-name="uniE63E" unicode="disability" 
d="M684 246q-3 -54 -25 -101q-23 -48 -59.5 -83t-85.5 -56q-49 -20 -103 -20q-57 0 -107 21q-50 22 -87 59t-59 87q-21 50 -21 107q0 51 18 97q17 46 48.5 82t74.5 60q42 24 91 31v70q-63 -8 -118 -37q-56 -30 -96.5 -75.5t-63.5 -103.5q-23 -59 -23 -124q0 -71 27 -134
q27 -62 73.5 -108.5t108.5 -73.5q63 -27 134 -27q55 0 105 17q51 16 93 46t74 71q32 42 50 91l-42 104h-7v0zM912 222h-68l-22 62t-30 85q-6 16 -19.5 26t-30.5 10h-164v114h156q15 0 26 11t11 26q0 16 -11 27t-26 11h-156l-14 68t-72 68q-40 0 -55.5 -28t-15.5 -68v-240
q0 -40 28 -68t68 -28q1 0 2 0.5t2 0.5t2.5 -0.5t2.5 -0.5h200l66 -166h120q18 0 31 13t13 32t-13 32t-31 13v0zM586 843q0 -39 -27.5 -66t-66.5 -27t-66 27t-27 66t27 66t66 27t66.5 -27t27.5 -66z" />
    <glyph glyph-name="uniE63F" unicode="exam" 
d="M755 63l-36 -37l-280 280l36 37l104 103l140 -140l34 34l105 106v427l-815 64v-1021l815 65v184l-32 -32l-71 -70v0zM645 720h174v-46h-59v-139h-57v139h-58v46v0zM567 600q-3 3 -10 5.5t-19 5.5q-19 4 -32.5 9.5t-21.5 12.5t-12 16t-4 20q0 7 2 14t7 13q4 6 10 11t14 9
q9 3 20 5t26 2q18 0 31.5 -3.5t22.5 -9.5q9 -7 14.5 -17.5t7.5 -24.5l-54 -3q-1 6 -3 10.5t-6 7.5q-3 3 -8 4.5t-11 1.5q-5 0 -8.5 -1t-6.5 -4q-2 -2 -3.5 -4.5t-1.5 -5.5q0 -2 1 -4t3 -4t7 -3.5t12 -3.5q19 -4 32.5 -8t21.5 -8t14 -9t10 -11q3 -7 5 -13.5t2 -14.5
q0 -9 -2.5 -17t-7.5 -16q-5 -7 -11.5 -13t-15.5 -9q-9 -4 -20 -6t-25 -2q-23 0 -39.5 4.5t-25.5 13.5t-14.5 20.5t-6.5 25.5l55 4q1 -7 2.5 -12t4.5 -9q4 -5 10.5 -8t14.5 -3q6 0 11 1.5t8 4.5t5 6t2 7t-1.5 7t-5.5 6v0zM259 674h-58v-139h-58v139h-58v46h174v-46v0z
M285 720h153v-40h-96v-29h89v-38h-89v-36h99v-42h-156v185v0zM957 471l-238 -238l-140 140l-67 -67l207 -207l305 305z" />
    <glyph glyph-name="uniE640" unicode="game&#x2e;&#x20;e&#x36;&#x34;&#x30;" 
d="M1023 63l-47 304q-2 22 -4.5 40t-5.5 32q-11 57 -50 99t-94 57v0.5v0.5q11 2 18.5 4.5t7.5 13.5q0 13 -9.5 26.5t-22.5 13.5h-101q-13 0 -22.5 -13.5t-9.5 -26.5q0 -11 7.5 -13.5t18.5 -4.5v-1v-2v0h-1q-38 -7 -79.5 -11.5t-90.5 -5.5q-2 40 -20 76.5t-61 59.5
q-18 10 -20.5 16.5t-1.5 9.5q2 16 27 38q25 21 65.5 42t93.5 39q53 19 111 29q11 2 17.5 11t4.5 20t-11 17t-20 4q-59 -10 -118 -30q-58 -20 -106 -45.5t-80 -55.5t-36 -61q-3 -14 4.5 -37.5t44.5 -42.5q28 -16 40 -40t14 -50q-48 1 -90 5.5t-81 11.5q0 1 -1 1h-2v1.5v0.5
q11 2 18.5 4.5t7.5 13.5q0 13 -9.5 26.5t-22.5 13.5h-101q-13 0 -22.5 -13.5t-9.5 -26.5q0 -11 7.5 -13.5t18.5 -4.5v-0.5v-1.5q-54 -15 -92 -57t-49 -98q-3 -14 -5.5 -32t-4.5 -40l-47 -304q-2 -46 15 -77.5t57 -41.5q39 -10 70 10.5t49 60.5l87 148q-8 11 -12.5 25
t-4.5 29q0 40 27.5 67.5t67.5 27.5q35 0 61 -22.5t32 -55.5h124q6 33 32 55.5t61 22.5q40 0 67.5 -27.5t27.5 -67.5q0 -15 -4.5 -29t-12.5 -25l87 -148q18 -40 49 -60.5t70 -10.5q40 10 57 41.5t15 77.5v0zM220 610h71q7 0 13 -4.5t7 -11.5q-8 3 -17 5t-18 2q-2 1 -3 1t-2 1
h-16q-14 0 -28 -2.5t-27 -6.5q2 7 7.5 11.5t12.5 4.5v0zM303 377h-36v-36q0 -11 -7.5 -18t-17.5 -7t-17 7t-7 18v36h-37q-10 0 -17 7t-7 18q0 10 7 17t17 7h37v37q0 10 7 17t17 7t17.5 -7t7.5 -17v-37h36q10 0 17.5 -7t7.5 -17q0 -11 -7.5 -18t-17.5 -7v0zM478 371h-59v58
h59v-58v0zM548 367v66l57 -33zM730 610h71q7 0 12.5 -4t7.5 -11q-13 4 -26 6t-26 2h-16q-1 -1 -2 -1t-3 -1q-10 -1 -19.5 -3t-19.5 -5q2 8 8 12.5t13 4.5v0zM815 458q0 -12 -8.5 -20t-20.5 -8t-20 8t-8 20t8 20.5t20 8.5t20.5 -8.5t8.5 -20.5zM729 373q-2 0 -5 0.5t-5 1.5
q-8 3 -13 10t-5 17q0 11 8.5 19.5t19.5 8.5q12 0 20 -7.5t9 -17.5v-2v-1q0 -12 -8.5 -20.5t-20.5 -8.5v0zM786 316q-12 0 -20 8.5t-8 20.5t8 20t20 8t20.5 -8t8.5 -20t-8.5 -20.5t-20.5 -8.5zM843 373q-12 0 -20.5 8.5t-8.5 20.5q0 11 8.5 19.5t20.5 8.5t20.5 -8.5
t8.5 -19.5q0 -12 -8.5 -20.5t-20.5 -8.5zM427 240q-3 8 -7 14.5t-9 11.5q-10 12 -24 18.5t-30 6.5q-31 0 -52.5 -21.5t-21.5 -52.5q0 -9 2 -17.5t6 -15.5q9 -18 26.5 -29.5t39.5 -11.5q30 0 51.5 22t21.5 52q0 5 -0.5 9.5t-1.5 8.5zM667 291q-16 0 -30 -6.5t-24 -17.5
q-5 -6 -9 -12.5t-7 -14.5l-1 -5q-1 -4 -1.5 -8.5t-0.5 -9.5q0 -30 21.5 -51.5t51.5 -21.5q22 0 39.5 11t26.5 29q4 7 6 15.5t2 17.5q0 31 -21.5 52.5t-52.5 21.5v0z" />
    <glyph glyph-name="uniE641" unicode="e&#x36;&#x34;&#x31;" 
d="M1022 291v91h-226l-78 255h208v126h-828v-126h208l-78 -255h-226v-91h198l-4 -14h-99v-67h78l-56 -183h96l56 183h482l56 -183h96l-56 183h78v67h-99l-4 14h198v0zM292 277l111 360h219l110 -360h-440v0z" />
    <glyph glyph-name="uniE642" unicode="e&#x36;&#x34;&#x32;" 
d="M254 558q-46 0 -88 -18q-41 -18 -71.5 -48.5t-48.5 -71.5t-18 -88v-416h452v416q0 47 -17 88q-18 41 -49 71.5t-72 48.5t-88 18zM422 769q0 -70 -49 -119t-119 -49q-69 0 -118.5 49t-49.5 119t49.5 119t118.5 49q70 0 119 -49t49 -119zM770 432q-47 0 -88 -18t-72 -48.5
t-49 -71.5q-17 -41 -17 -88v-290h451v290q0 47 -17 88q-18 41 -48.5 71.5t-72.5 48.5q-41 18 -87 18v0zM938 643q0 -69 -49.5 -118.5t-118.5 -49.5q-70 0 -119 49.5t-49 118.5q0 70 49 119t119 49q69 0 118.5 -49t49.5 -119z" />
    <glyph glyph-name="uniE643" unicode="e&#x36;&#x34;&#x33;" 
d="M1005 917q-13 13 -32 13t-33 -13l-153 -154q-14 -13 -14 -32t14 -32q6 -7 14.5 -10.5t17.5 -3.5t17 3.5t15 10.5l33 32v-353l-82 -93l-399 225q-4 3 -8 5t-8 5h-1q-17 9 -35 15t-37 10l23 76h-85l-23 -75q-47 -6 -88 -29t-71 -57.5t-47 -78.5q-17 -43 -17 -93
q0 -67 31 -123t82 -92l-41 -84h-34q-14 0 -23.5 -9.5t-9.5 -23.5t9.5 -23.5t23.5 -9.5h123q14 0 23.5 9.5t9.5 23.5t-9.5 23.5t-23.5 9.5h-13l26 53q19 -7 40 -10.5t42 -3.5v-1h3h0.5h0.5h1.5h0.5h487v-38h-27q-14 0 -23.5 -9.5t-9.5 -23.5t9.5 -23.5t23.5 -9.5h123
q14 0 23.5 9.5t9.5 23.5t-9.5 23.5t-23.5 9.5h-27v38h6v1q45 2 76.5 35t31.5 79q0 34 -18 61t-46 41l-31 18l79 90q4 4 5.5 8t1.5 9v252h45v201l31 30q13 14 13 33t-13 32v0zM483 71h-121v35h31l-59 59q-15 -9 -32 -13.5t-35 -4.5q-59 0 -100 41.5t-41 99.5t41 99.5
t100 41.5q58 0 99 -41.5t41 -99.5q0 -30 -12 -57t-33 -46l80 -79h41v-35v0zM216 637h233l9 6.5t3 25.5l-8 7l-262 72l-19 -6t-19 -30q0 -21 14.5 -48t48.5 -27v0zM267 343q-23 0 -39.5 -16t-16.5 -39t16.5 -39t39.5 -16q22 0 38.5 16t16.5 39t-16.5 39t-38.5 16z" />
    <glyph glyph-name="uniE644" unicode="e&#x36;&#x34;&#x34;" 
d="M199 428l6 -160h610l6 160q68 16 113 71t45 128q0 42 -16 79q-16 38 -44 65.5t-65 43.5t-80 16q-21 0 -40.5 -4t-38.5 -12q-24 52 -73.5 85t-111.5 33q-61 0 -110.5 -33t-74.5 -85q-18 8 -38 12t-41 4q-43 0 -80 -16t-65 -43.5t-44 -65.5q-16 -37 -16 -79q0 -73 45 -128
t113 -71v0zM206 243v0h-18v-127h644v127h-17v0h-609zM682 64h-675v-23q40 -42 114 -68q74 -25 156 -37.5t159 -14.5t122 3q43 5 67.5 25t37.5 44h354v71h-335v0z" />
    <glyph glyph-name="uniE645" unicode="e&#x36;&#x34;&#x35;" 
d="M855 921h-702q-18 0 -31 -13t-13 -31v-136h790v136q0 18 -12.5 31t-31.5 13zM504 769q-26 0 -44 18t-18 44t18 44.5t44 18.5t44.5 -18.5t18.5 -44.5t-18.5 -44t-44.5 -18v0zM714 777q-12 0 -21 9t-9 21q0 13 9 22t21 9q13 0 21.5 -9t8.5 -22q0 -12 -8.5 -21t-21.5 -9z
M803 777q-13 0 -21.5 9t-8.5 21q0 13 8.5 22t21.5 9t21.5 -9t8.5 -22q0 -12 -8.5 -21t-21.5 -9zM855 703h-746v-771h790v771h-44zM814 263q0 -12 -8.5 -20.5t-20.5 -8.5h-12q-2 0 -3.5 0.5t-2.5 0.5q-12 -43 -37 -79q-25 -37 -59.5 -63t-77.5 -41q-42 -15 -89 -15
q-56 0 -106 21q-50 22 -87 59t-58 87q-22 49 -22 106t22 106q21 50 58 87t87 59q50 21 106 21q50 0 95 -17t80.5 -46.5t59.5 -70.5q25 -41 34 -88v0v0h12q12 0 20.5 -8.5t8.5 -20.5v-69v0zM504 87q46 0 87 18q41 17 71 47.5t48 70.5q17 41 17 87q0 10 -1 19.5t-2 18.5
q-4 -28 -25.5 -46.5t-49.5 -18.5q-26 0 -45.5 14.5t-27.5 36.5q-7 -22 -27 -36.5t-45 -14.5t-44.5 14.5t-27.5 36.5q-8 -22 -27.5 -36.5t-44.5 -14.5q-28 0 -49.5 18.5t-25.5 46.5q-2 -9 -3 -18.5t-1 -19.5q0 -46 18 -87q17 -40 47.5 -70.5t71.5 -47.5q40 -18 86 -18v0z" />
    <glyph glyph-name="uniE646" unicode="books" 
d="M991 378l15 24l-9 17l-24 20l23 36.5t23 90.5q0 45 -29 77.5t-67 46.5q41 21 46 48.5t3 38.5q3 15 -9.5 53.5t-98.5 51.5l-535 24l-315 -27l-7.5 -6t7.5 -15l30 2v-165l-30 2q-15 -9 -7.5 -15l7.5 -6l119 -10q-8 -4 -11.5 -8t2.5 -9l68 -6v-119l-28 10l-15.5 3t-24.5 -4
v-13l102 -57l-126 -20l-21.5 -15t-21.5 -78q0 -64 19.5 -89.5l19.5 -25.5l358 -288h35l517 254v28l-33 16l-10 -5v129l28 9v0zM732 829q7 0 18.5 -13.5t11.5 -35.5q0 -23 -11.5 -34.5t-18.5 -11.5l-250 -9q4 10 6 23t3 29q-1 19 -3.5 33t-7.5 25zM57 694v167l271 21
l37.5 -10.5t39.5 -94.5q-2 -83 -39.5 -93.5l-37.5 -10.5l-271 21v0zM464 9h-2l-35 8l-309 249l-21 49t25 97l314 -183l28 -13v-207v0zM205 519v123l351 -26h43v-239h-2l-392 142v0zM950 234l-461 -222l-12 -1v204h12l17 9l444 141v-131v0zM950 458l-338 -78v236h16l313 33
l25 -18t25 -62t-20.5 -77.5l-20.5 -33.5v0z" />
    <glyph glyph-name="uniE647" unicode="e&#x36;&#x34;&#x37;" 
d="M895 920h-465q-18 0 -33.5 -9t-25.5 -24v0l-341 -342q-13 -11 -20.5 -28t-7.5 -37q0 -35 21.5 -59t51.5 -24h539h1v0h1v0q11 0 19 9t8 21t-7.5 20.5t-18.5 9.5v0h1h-543q-8 0 -14 6.5t-6 16.5q0 9 6 16t14 7h590q31 0 52.5 -24.5t21.5 -58.5t-21.5 -58.5t-52.5 -24.5
h-599q-11 0 -19 -8.5t-8 -20.5q0 -13 8 -21.5t19 -8.5h599q30 0 56 14.5t44 38.5v0l220 347q18 19 27.5 45t9.5 55q0 59 -37 100.5t-90 41.5v0zM970 548l-169 -264q-1 -1 -1.5 -2t-1.5 -2q-25 -34 -59.5 -52t-73.5 -18h-626l-9 -10v0q-13 -11 -20.5 -28t-7.5 -37
q0 -34 21.5 -58.5t51.5 -24.5h539q1 0 1 0.5v0.5q1 0 1 -0.5v-0.5q11 0 19 9t8 21t-7.5 20.5t-18.5 9.5v0h1h-543q-8 0 -14 7t-6 16q0 10 6 16.5t14 6.5h590q31 0 52.5 -24t21.5 -58q0 -35 -21.5 -59t-52.5 -24h-599q-11 0 -19 -9t-8 -21t8 -21t19 -9h599q30 0 56 14.5
t44 39.5v0l220 346q18 19 27.5 45t9.5 55q0 36 -14 66t-38 49v0z" />
    <glyph glyph-name="uniE648" unicode="e&#x36;&#x34;&#x38;" 
d="M196 556v0v-1q1 -1 1.5 -2.5t1.5 -3.5l40 -81q53 17 123.5 27t149.5 10t149.5 -10t123.5 -27l40 81q1 2 1.5 3.5t1.5 2.5v0.5v0.5q15 27 33.5 43.5t49.5 16.5v44q0 77 -55 132t-132 55h-424q-77 0 -132 -55t-55 -132v-44q31 0 49.5 -16.5t33.5 -43.5v0zM930 569h-1.5
h-0.5q-26 -1 -46.5 -14.5t-32.5 -34.5v0q-1 -1 -1.5 -2.5t-1.5 -2.5l-49 -101q-49 20 -123.5 31.5t-161.5 11.5t-161.5 -11.5t-123.5 -31.5v0l-49 101q-1 1 -1.5 2.5t-1.5 2.5v0q-12 21 -32.5 34.5t-46.5 14.5h-0.5h-1.5q-38 0 -65 -27t-27 -65q0 -33 20 -57.5t50 -31.5
l18 -146q10 -39 29.5 -57.5t51.5 -18.5h682q32 0 51.5 18.5t29.5 57.5l18 146q30 7 50 31.5t20 57.5q0 38 -27 65t-65 27zM202 145h-1h-25.5t-14.5 -11l12 -100q0 -11 8.5 -19.5t19.5 -8.5h1q12 0 20 8.5t8 19.5l12 99q0 11 -14 11.5t-26 0.5v0zM823 145h-1h-26t-14 -11
l12 -100q0 -11 8 -19.5t20 -8.5h1q12 0 20 8.5t8 19.5l12 99q0 11 -14 11.5t-26 0.5v0z" />
    <glyph glyph-name="uniE649" unicode="e&#x36;&#x34;&#x39;" 
d="M512 934q-105 0 -198 -40q-92 -40 -161 -108.5t-109 -161.5q-39 -92 -39 -197t39 -198q40 -92 109 -161t161 -109q93 -40 198 -40t198 40q92 40 161 109t109 161q39 93 39 198t-39 197q-40 93 -109 161.5t-161 108.5q-93 40 -198 40zM294 464l12 -343q0 -9 -13.5 -15
t-22.5 -6t-22.5 6t-13.5 15l12 343q-36 10 -60.5 50t-24.5 92q0 61 32 103.5t77 42.5t76.5 -42.5t31.5 -103.5q0 -52 -24 -92t-60 -50v0zM613 592v-35q0 -35 -19.5 -70.5t-47.5 -40.5l12 -325q0 -9 -13.5 -15t-22.5 -6t-22.5 6t-13.5 15l12 325q-28 5 -47.5 40.5t-19.5 70.5
v180q0 8 5.5 13.5t13.5 5.5q7 0 12.5 -5.5t5.5 -13.5v-161q0 -7 5.5 -12t12.5 -5t12 5t5 12v161q0 8 5.5 13.5t13.5 5.5t13.5 -5.5t5.5 -13.5v-161q0 -7 5 -12t12 -5t12.5 5t5.5 12v125v0v0v36q0 8 5.5 13.5t12.5 5.5q8 0 13.5 -5.5t5.5 -13.5v-145v0zM764 100q-8 0 -21.5 6
t-13.5 15l11 236q-24 1 -40.5 18t-16.5 41v210q0 25 28 75.5t53 50.5h22q13 0 13.5 -28.5t0.5 -52.5v-134v-416q0 -9 -13.5 -15t-22.5 -6v0z" />
    <glyph glyph-name="uniE64A" unicode="e&#x36;&#x34;a" 
d="M700 615q30 -30 45.5 -68t15.5 -80q0 -16 11.5 -27.5t27.5 -11.5t27.5 11.5t11.5 27.5q0 57 -22 109.5t-62 92.5q-41 41 -93.5 62.5t-109.5 21.5q-16 0 -27.5 -11t-11.5 -27t11.5 -27.5t27.5 -11.5q42 0 80 -16t68 -45zM879 794q-33 32 -71 58q-37 25 -78.5 42t-86.5 26
t-91 9q-16 0 -27.5 -11.5t-11.5 -27.5t11.5 -27t27.5 -11q77 0 147.5 -29t124.5 -84q55 -55 84 -125t29 -147q0 -16 11.5 -27.5t27.5 -11.5v0q16 0 27 11.5t11 27.5q0 46 -9 91q-8 44 -25.5 85.5t-42.5 79.5t-58 71v0zM783 249q-26 26 -60 22.5t-66 -35.5q-24 -24 -23 -23
t-23 -24q-6 -6 -12 -8t-13 2q-13 6 -27 11.5t-27 12.5q-60 33 -109 78.5t-90 98.5q-21 27 -38 56t-28 62q-2 7 -0.5 12t7.5 12q24 23 23 22t22 23q34 33 37 67t-24 62l-30.5 30.5l-31.5 31.5q-15 16 -31 32t-32 31q-17 17 -38 21t-42 -4q-13 -6 -24.5 -13.5t-21.5 -16.5
l-9.5 -9.5l-6.5 -6.5q-45 -50 -53 -124t16 -160t80 -177q55 -91 138 -174q82 -82 171 -137t173.5 -80t158.5 -18q74 6 125 47q3 4 5.5 5.5t16.5 16.5q1 1 2.5 2t2.5 2q8 10 14.5 20t11.5 21q9 22 4.5 43.5t-21.5 38.5l-63.5 63.5z" />
    <glyph glyph-name="uniE64B" unicode="e&#x36;&#x34;b" 
d="M45 287q0 1 30 20t91 19q26 0 41 -6.5t31 -15.5q21 -12 51 -24.5t88 -15.5q1 0 2 -0.5t3 -0.5t4.5 0.5t4.5 0.5t4.5 -0.5t4.5 -0.5q1 0 2.5 0.5t2.5 0.5q57 3 87.5 15.5t51.5 24.5q16 9 31 15.5t41 6.5q61 0 90.5 -19t30.5 -20l1 -1l2 -2q1 0 31.5 -15t78.5 -15
q35 0 76.5 15t85.5 56q8 7 8 16.5t-7 17.5q-6 7 -16 7t-17 -6q-78 -74 -140 -58.5t-71 20.5q-9 8 -46.5 29.5t-106.5 21.5q-36 0 -57 -9t-39 -19q-21 -12 -47.5 -22.5t-81.5 -11.5q-55 1 -81.5 11.5t-47.5 22.5q-18 10 -39.5 19t-56.5 9q-77 0 -115.5 -25.5t-39.5 -27.5
q-7 -7 -7 -16.5t7 -16.5t17 -7t17 7v0zM980 240q-78 -74 -140 -58.5t-71 21.5q-9 8 -46.5 29.5t-106.5 21.5q-36 0 -57 -9t-39 -20q-21 -12 -47.5 -22t-81.5 -11q-55 1 -82 11t-47 22q-18 11 -39.5 20t-56.5 9q-77 0 -115.5 -26t-39.5 -27q-7 -7 -7 -17t7 -17t17 -6.5
t17 7.5l30 19.5t91 19.5q26 0 41 -6.5t31 -16.5q21 -12 51 -24.5t88 -14.5q1 -1 2 -1h3h4.5h4.5h4.5h4.5h2.5t2.5 1q57 2 87.5 14.5t51.5 24.5q16 10 31 16.5t41 6.5q61 0 90.5 -19t30.5 -20l1 -2l2 -1q1 -1 31 -15.5t78 -14.5q36 0 77.5 14.5t85.5 56.5q7 6 7.5 16t-6.5 17
q-6 7 -16 7.5t-17 -6.5zM980 121q-78 -74 -140 -58.5t-71 21.5q-9 7 -46.5 29t-106.5 22q-36 0 -57 -9.5t-39 -19.5q-21 -12 -47.5 -22.5t-81.5 -11.5q-55 1 -82 11.5t-47 22.5q-18 10 -39.5 19.5t-56.5 9.5q-77 0 -115.5 -26t-39.5 -28q-7 -7 -7 -16.5t7 -16.5t17 -7t17 7
q0 1 30 20t91 19q26 0 41 -6t31 -16q21 -12 51 -24.5t88 -15.5h2h3h4.5h4.5h4.5h4.5h2.5h2.5q57 3 87.5 15.5t51.5 24.5q16 10 31 16t41 6q61 0 90.5 -18.5t30.5 -20.5l1 -1l2 -2q1 0 31 -15t78 -15q36 0 77.5 15t85.5 56q7 7 7.5 17t-6.5 17q-6 7 -16 7t-17 -6v0zM206 515
l148 156q61 -61 53 -89l-8 -28l-139 -138q0 -1 0.5 -1t1.5 -1q20 -12 47 -22t82 -11q55 1 81.5 11t47.5 22q18 11 39 20t57 9q69 0 108.5 -23t47.5 -31q6 7 13.5 17.5l12.5 17.5q13 18 9 40t-22 35l-408 286q-16 11 -35.5 9t-33.5 -16l-179 -190q-16 -16 -15 -38t17 -37
q16 -16 38 -15t37 17v0zM849 720q0 -48 -34.5 -82.5t-83.5 -34.5q-48 0 -82.5 34.5t-34.5 82.5q0 49 34.5 83.5t82.5 34.5q49 0 83.5 -34.5t34.5 -83.5z" />
    <glyph glyph-name="uniE64C" unicode="bath" 
d="M945 938h-866q-32 0 -55 -23t-23 -56v-865q0 -32 23 -55t55 -23h866q32 0 55 23t23 55v865q0 33 -23 56t-55 23zM975 -6q0 -13 -9 -21.5t-21 -8.5h-866q-12 0 -21 8.5t-9 21.5v865q0 13 9 22t21 9h418q-1 -2 -1 -3.5v-2.5v-177l-118 -82q-21 -6 -33.5 -14t-12.5 -17
q0 -20 53 -34t127 -14t127 14t53 34q0 9 -12.5 17t-33.5 14l-118 82v177v2.5t-1 3.5h418q12 0 21 -9t9 -22v-865v0zM639 498q-5 0 -8 -3t-3 -8v-10q0 -5 3 -8t8 -3q4 0 7 3t3 8v10q0 5 -3 8t-7 3zM639 270q-5 0 -8 -3t-3 -8v-19q0 -5 3 -8t8 -3q4 0 7 3t3 8v19q0 5 -3 8
t-7 3zM639 152q-5 0 -8 -3.5t-3 -7.5v-20q0 -4 3 -7t8 -3q4 0 7 3t3 7v20q0 4 -3 7.5t-7 3.5zM639 211q-5 0 -8 -3t-3 -8v-19q0 -5 3 -8t8 -3q4 0 7 3t3 8v19q0 5 -3 8t-7 3zM639 389q-5 0 -8 -3.5t-3 -7.5v-20q0 -4 3 -7t8 -3q4 0 7 3t3 7v20q0 4 -3 7.5t-7 3.5zM639 448
q-5 0 -8 -3t-3 -8v-20q0 -4 3 -7t8 -3q4 0 7 3t3 7v20q0 5 -3 8t-7 3v0zM639 329q-5 0 -8 -3t-3 -7v-20q0 -4 3 -7.5t8 -3.5q4 0 7 3.5t3 7.5v20q0 4 -3 7t-7 3zM639 92q-5 0 -8 -3t-3 -7v-11q0 -4 3 -7t8 -3q4 0 7 3t3 7v11q0 4 -3 7t-7 3zM512 498q-4 0 -7.5 -3t-3.5 -8
v-10q0 -5 3.5 -8t7.5 -3t7.5 3t3.5 8v10q0 5 -3.5 8t-7.5 3v0zM512 270q-4 0 -7.5 -3t-3.5 -8v-19q0 -5 3.5 -8t7.5 -3t7.5 3t3.5 8v19q0 5 -3.5 8t-7.5 3v0zM512 152q-4 0 -7.5 -3.5t-3.5 -7.5v-20q0 -4 3.5 -7t7.5 -3t7.5 3t3.5 7v20q0 4 -3.5 7.5t-7.5 3.5v0zM512 211
q-4 0 -7.5 -3t-3.5 -8v-19q0 -5 3.5 -8t7.5 -3t7.5 3t3.5 8v19q0 5 -3.5 8t-7.5 3v0zM512 448q-4 0 -7.5 -3t-3.5 -8v-20q0 -4 3.5 -7t7.5 -3t7.5 3t3.5 7v20q0 5 -3.5 8t-7.5 3v0zM512 329q-4 0 -7.5 -3t-3.5 -7v-20q0 -4 3.5 -7.5t7.5 -3.5t7.5 3.5t3.5 7.5v20q0 4 -3.5 7
t-7.5 3v0zM512 389q-4 0 -7.5 -3.5t-3.5 -7.5v-20q0 -4 3.5 -7t7.5 -3t7.5 3t3.5 7v20q0 4 -3.5 7.5t-7.5 3.5v0zM512 92q-4 0 -7.5 -3t-3.5 -7v-11q0 -4 3.5 -7t7.5 -3t7.5 3t3.5 7v11q0 4 -3.5 7t-7.5 3v0zM385 498q-4 0 -7.5 -3t-3.5 -8v-10q0 -5 3.5 -8t7.5 -3q5 0 8 3
t3 8v10q0 5 -3 8t-8 3zM385 152q-4 0 -7.5 -3.5t-3.5 -7.5v-20q0 -4 3.5 -7t7.5 -3q5 0 8 3t3 7v20q0 4 -3 7.5t-8 3.5zM385 211q-4 0 -7.5 -3t-3.5 -8v-19q0 -5 3.5 -8t7.5 -3q5 0 8 3t3 8v19q0 5 -3 8t-8 3zM385 270q-4 0 -7.5 -3t-3.5 -8v-19q0 -5 3.5 -8t7.5 -3q5 0 8 3
t3 8v19q0 5 -3 8t-8 3zM385 389q-4 0 -7.5 -3.5t-3.5 -7.5v-20q0 -4 3.5 -7t7.5 -3q5 0 8 3t3 7v20q0 4 -3 7.5t-8 3.5zM385 448q-4 0 -7.5 -3t-3.5 -8v-20q0 -4 3.5 -7t7.5 -3q5 0 8 3t3 7v20q0 5 -3 8t-8 3v0zM385 329q-4 0 -7.5 -3t-3.5 -7v-20q0 -4 3.5 -7.5t7.5 -3.5
q5 0 8 3.5t3 7.5v20q0 4 -3 7t-8 3zM385 92q-4 0 -7.5 -3t-3.5 -7v-11q0 -4 3.5 -7t7.5 -3q5 0 8 3t3 7v11q0 4 -3 7t-8 3z" />
    <glyph glyph-name="uniE64D" unicode="e&#x36;&#x34;d" 
d="M942 935h-860q-32 0 -55 -23t-23 -55v-861q0 -32 22.5 -55t55.5 -23h860q33 0 55.5 23t22.5 55v861q0 32 -22.5 55t-55.5 23v0zM381 382q0 22 15.5 38t37.5 16l301 -16q22 0 38 -15.5t16 -37.5v-79h-408v94v0zM292 409q25 0 42.5 -17.5t17.5 -42.5t-17.5 -43t-42.5 -18
q-26 0 -43.5 18t-17.5 43t17.5 42.5t43.5 17.5zM916 27q0 -16 -11.5 -27t-27.5 -11h-13q-17 0 -28 11t-11 27v133h-626v-133q0 -16 -11.5 -27t-27.5 -11h-13q-16 0 -27.5 11t-11.5 27v488q0 16 11.5 27t27.5 11h13q16 0 27.5 -11t11.5 -27v-254h626v76q0 16 11 27t28 11h13
q16 0 27.5 -11t11.5 -27v-310v0z" />
    <glyph glyph-name="uniE64E" unicode="cctv" 
d="M90 243l72 -217l77 25l-111 204zM899 578l-240 -80v104q46 6 86 28t69 55.5t46 76.5q17 42 17 90h-506q0 -48 17 -90q17 -43 46 -76.5t69 -55.5t86 -28v-127l-474 -157l173 -317l723 240zM624 203q-43 0 -73.5 30.5t-30.5 73.5q0 34 19.5 60.5t49.5 37.5q8 3 17 4.5
t18 1.5t18 -1.5t17 -4.5q30 -11 49.5 -37.5t19.5 -60.5q0 -43 -30.5 -73.5t-73.5 -30.5zM659 354q-7 6 -16 9t-19 3t-19 -3t-16 -9q-11 -8 -17.5 -20t-6.5 -27q0 -25 17.5 -42t41.5 -17q25 0 42 17t17 42q0 15 -6.5 27t-17.5 20zM67 25l-54 162l73 24l54 -162l-73 -24v0z
" />
    <glyph glyph-name="uniE64F" unicode="e&#x36;&#x34;f" 
d="M945 938h-866q-32 0 -55 -23t-23 -56v-865q0 -33 23 -55.5t55 -22.5h866q32 0 55 23t23 55v865q0 33 -23 56t-55 23zM49 -6v865q0 13 9 22t21 9h187q-1 -2 -1 -3.5v-2.5v-177l-101 -82q-18 -6 -28.5 -14t-10.5 -17q0 -20 45 -34t109 -14q63 0 108.5 14t45.5 34
q0 9 -10.5 17t-29.5 14l-100 82v177q0 1 -0.5 2.5t-0.5 3.5h209v-927h-422q-12 0 -21 9t-9 22v0zM975 -6q0 -13 -9 -22t-21 -9h-422v927h216q0 -2 -0.5 -3.5t-0.5 -2.5v-177l-100 -82q-19 -6 -29.5 -14t-10.5 -17q0 -20 45.5 -34t108.5 -14q64 0 109 14t45 34q0 9 -10 17
t-29 14l-100 82v177q0 1 -0.5 2.5t-0.5 3.5h179q12 0 21 -9t9 -22v-865zM387 498q-4 0 -7 -3t-3 -8v-10q0 -5 3 -8t7 -3q5 0 8 3t3 8v10q0 5 -3 8t-8 3zM387 389q-4 0 -7 -3.5t-3 -7.5v-20q0 -4 3 -7.5t7 -3.5q5 0 8 3.5t3 7.5v20q0 4 -3 7.5t-8 3.5zM387 270q-4 0 -7 -3
t-3 -8v-19q0 -5 3 -8t7 -3q5 0 8 3t3 8v19q0 5 -3 8t-8 3zM387 152q-4 0 -7 -3.5t-3 -7.5v-20q0 -4 3 -7t7 -3q5 0 8 3t3 7v20q0 4 -3 7.5t-8 3.5zM387 329q-4 0 -7 -3t-3 -7v-20q0 -4 3 -7.5t7 -3.5q5 0 8 3.5t3 7.5v20q0 4 -3 7t-8 3zM387 211q-4 0 -7 -3t-3 -8v-20
q0 -4 3 -7t7 -3q5 0 8 3t3 7v20q0 5 -3 8t-8 3zM387 448q-4 0 -7 -3t-3 -8v-20q0 -4 3 -7t7 -3q5 0 8 3t3 7v20q0 5 -3 8t-8 3v0zM387 92q-4 0 -7 -3t-3 -7v-11q0 -4 3 -7.5t7 -3.5q5 0 8 3.5t3 7.5v11q0 4 -3 7t-8 3zM279 498q-5 0 -8 -3t-3 -8v-10q0 -5 3 -8t8 -3q4 0 7 3
t3 8v10q0 5 -3 8t-7 3zM279 389q-5 0 -8 -3.5t-3 -7.5v-20q0 -4 3 -7.5t8 -3.5q4 0 7 3.5t3 7.5v20q0 4 -3 7.5t-7 3.5zM279 270q-5 0 -8 -3t-3 -8v-19q0 -5 3 -8t8 -3q4 0 7 3t3 8v19q0 5 -3 8t-7 3zM279 448q-5 0 -8 -3t-3 -8v-20q0 -4 3 -7t8 -3q4 0 7 3t3 7v20q0 5 -3 8
t-7 3v0zM279 329q-5 0 -8 -3t-3 -7v-20q0 -4 3 -7.5t8 -3.5q4 0 7 3.5t3 7.5v20q0 4 -3 7t-7 3zM279 211q-5 0 -8 -3t-3 -8v-20q0 -4 3 -7t8 -3q4 0 7 3t3 7v20q0 5 -3 8t-7 3zM279 152q-5 0 -8 -3.5t-3 -7.5v-20q0 -4 3 -7t8 -3q4 0 7 3t3 7v20q0 4 -3 7.5t-7 3.5zM279 92
q-5 0 -8 -3t-3 -7v-11q0 -4 3 -7.5t8 -3.5q4 0 7 3.5t3 7.5v11q0 4 -3 7t-7 3zM170 498q-4 0 -7.5 -3t-3.5 -8v-10q0 -5 3.5 -8t7.5 -3t7.5 3t3.5 8v10q0 5 -3.5 8t-7.5 3zM170 389q-4 0 -7.5 -3.5t-3.5 -7.5v-20q0 -4 3.5 -7.5t7.5 -3.5t7.5 3.5t3.5 7.5v20q0 4 -3.5 7.5
t-7.5 3.5zM170 329q-4 0 -7.5 -3t-3.5 -7v-20q0 -4 3.5 -7.5t7.5 -3.5t7.5 3.5t3.5 7.5v20q0 4 -3.5 7t-7.5 3zM170 270q-4 0 -7.5 -3t-3.5 -8v-19q0 -5 3.5 -8t7.5 -3t7.5 3t3.5 8v19q0 5 -3.5 8t-7.5 3zM170 211q-4 0 -7.5 -3t-3.5 -8v-20q0 -4 3.5 -7t7.5 -3t7.5 3t3.5 7
v20q0 5 -3.5 8t-7.5 3zM170 448q-4 0 -7.5 -3t-3.5 -8v-20q0 -4 3.5 -7t7.5 -3t7.5 3t3.5 7v20q0 5 -3.5 8t-7.5 3v0zM170 152q-4 0 -7.5 -3.5t-3.5 -7.5v-20q0 -4 3.5 -7t7.5 -3t7.5 3t3.5 7v20q0 4 -3.5 7.5t-7.5 3.5zM170 92q-4 0 -7.5 -3t-3.5 -7v-11q0 -4 3.5 -7.5
t7.5 -3.5t7.5 3.5t3.5 7.5v11q0 4 -3.5 7t-7.5 3zM861 498q-4 0 -7.5 -3t-3.5 -8v-10q0 -5 3.5 -8t7.5 -3q5 0 8 3t3 8v10q0 5 -3 8t-8 3zM861 448q-4 0 -7.5 -3t-3.5 -8v-20q0 -4 3.5 -7t7.5 -3q5 0 8 3t3 7v20q0 5 -3 8t-8 3v0zM861 389q-4 0 -7.5 -3.5t-3.5 -7.5v-20
q0 -4 3.5 -7.5t7.5 -3.5q5 0 8 3.5t3 7.5v20q0 4 -3 7.5t-8 3.5zM861 211q-4 0 -7.5 -3t-3.5 -8v-20q0 -4 3.5 -7t7.5 -3q5 0 8 3t3 7v20q0 5 -3 8t-8 3zM861 329q-4 0 -7.5 -3t-3.5 -7v-20q0 -4 3.5 -7.5t7.5 -3.5q5 0 8 3.5t3 7.5v20q0 4 -3 7t-8 3zM861 152
q-4 0 -7.5 -3.5t-3.5 -7.5v-20q0 -4 3.5 -7t7.5 -3q5 0 8 3t3 7v20q0 4 -3 7.5t-8 3.5zM861 270q-4 0 -7.5 -3t-3.5 -8v-19q0 -5 3.5 -8t7.5 -3q5 0 8 3t3 8v19q0 5 -3 8t-8 3zM861 92q-4 0 -7.5 -3t-3.5 -7v-11q0 -4 3.5 -7.5t7.5 -3.5q5 0 8 3.5t3 7.5v11q0 4 -3 7t-8 3z
M752 498q-4 0 -7 -3t-3 -8v-10q0 -5 3 -8t7 -3q5 0 8 3t3 8v10q0 5 -3 8t-8 3zM752 270q-4 0 -7 -3t-3 -8v-19q0 -5 3 -8t7 -3q5 0 8 3t3 8v19q0 5 -3 8t-8 3zM752 329q-4 0 -7 -3t-3 -7v-20q0 -4 3 -7.5t7 -3.5q5 0 8 3.5t3 7.5v20q0 4 -3 7t-8 3zM752 211q-4 0 -7 -3
t-3 -8v-20q0 -4 3 -7t7 -3q5 0 8 3t3 7v20q0 5 -3 8t-8 3zM752 389q-4 0 -7 -3.5t-3 -7.5v-20q0 -4 3 -7.5t7 -3.5q5 0 8 3.5t3 7.5v20q0 4 -3 7.5t-8 3.5zM752 152q-4 0 -7 -3.5t-3 -7.5v-20q0 -4 3 -7t7 -3q5 0 8 3t3 7v20q0 4 -3 7.5t-8 3.5zM752 448q-4 0 -7 -3t-3 -8
v-20q0 -4 3 -7t7 -3q5 0 8 3t3 7v20q0 5 -3 8t-8 3v0zM752 92q-4 0 -7 -3t-3 -7v-11q0 -4 3 -7.5t7 -3.5q5 0 8 3.5t3 7.5v11q0 4 -3 7t-8 3zM644 498q-5 0 -8 -3t-3 -8v-10q0 -5 3 -8t8 -3q4 0 7 3t3 8v10q0 5 -3 8t-7 3zM644 211q-5 0 -8 -3t-3 -8v-20q0 -4 3 -7t8 -3
q4 0 7 3t3 7v20q0 5 -3 8t-7 3zM644 389q-5 0 -8 -3.5t-3 -7.5v-20q0 -4 3 -7.5t8 -3.5q4 0 7 3.5t3 7.5v20q0 4 -3 7.5t-7 3.5zM644 329q-5 0 -8 -3t-3 -7v-20q0 -4 3 -7.5t8 -3.5q4 0 7 3.5t3 7.5v20q0 4 -3 7t-7 3zM644 448q-5 0 -8 -3t-3 -8v-20q0 -4 3 -7t8 -3q4 0 7 3
t3 7v20q0 5 -3 8t-7 3v0zM644 270q-5 0 -8 -3t-3 -8v-19q0 -5 3 -8t8 -3q4 0 7 3t3 8v19q0 5 -3 8t-7 3zM644 152q-5 0 -8 -3.5t-3 -7.5v-20q0 -4 3 -7t8 -3q4 0 7 3t3 7v20q0 4 -3 7.5t-7 3.5zM644 92q-5 0 -8 -3t-3 -7v-11q0 -4 3 -7.5t8 -3.5q4 0 7 3.5t3 7.5v11
q0 4 -3 7t-7 3z" />
    <glyph glyph-name="uniE650" unicode="e&#x36;&#x35;&#x30;" 
d="M428 914q-81 0 -153 -31t-125 -84.5t-84 -124.5q-31 -72 -31 -154q0 -74 26 -141q26 -66 71.5 -118t108.5 -86q62 -34 134 -44l443 443q-10 72 -44 134t-86 108t-118 72q-67 26 -142 26v0zM749 292q34 48 53.5 106t19.5 122v5v5l-403 -403h4.5h4.5q64 0 122 19t107 54
l219 -250l123 123l-250 219v0zM963 746q29 29 29 70t-29 69q-28 29 -69 29t-69 -29q-29 -28 -29 -69t29 -70q28 -28 69 -28t69 28z" />
    <glyph glyph-name="uniE651" unicode="e&#x36;&#x35;&#x31;" 
d="M633 715q66 47 131 85.5t130 68.5v28q0 7 -1.5 12t-4.5 8q-4 3 -8 3.5t-9 -2.5q-33 -17 -67 -38q-34 -20 -67.5 -44t-67.5 -50q-34 -27 -67 -57h6q7 0 13.5 -3.5t11.5 -10.5v0zM416 729h6q-33 30 -67 57q-34 26 -67.5 50t-67.5 44q-34 21 -67 38q-5 3 -9 2.5t-8 -3.5
q-3 -3 -4.5 -8t-1.5 -12v-28q65 -30 130 -68.5t131 -85.5q5 7 11.5 10.5t13.5 3.5zM1014 853q-4 3 -9 3.5t-10 -2.5q-26 -11 -54.5 -25.5t-60.5 -32.5t-56 -32.5t-41 -25.5q-16 -10 -45.5 -29t-71.5 -47q-15 -10 -37.5 -18t-52.5 -14v3q0 7 -2.5 12.5t-7.5 10.5q-4 5 -10 7
t-12 2h-64q-6 0 -11.5 -2t-10.5 -7t-7.5 -10.5t-2.5 -12.5v-3q-30 6 -52.5 14t-37.5 18q-42 28 -71.5 47t-45.5 29q-17 11 -41 25.5t-56 32.5t-60.5 32.5t-54.5 25.5q-5 3 -10 2.5t-9 -3.5t-6 -8t-2 -12l32 -659q0 -7 2 -13t6 -13q4 -6 9 -10t10 -7q14 -6 44 -24t108 -48
q78 -29 130.5 -51.5t77.5 -36.5q4 -2 11 -5t17 -7q2 -6 5 -10.5t7 -7.5q4 -4 9 -6t10 -2h64q5 0 10 2t9 6q4 3 7 7.5t5 10.5q10 4 17 7t11 5q25 14 77 36.5t130 51.5q79 30 109 48t44 24q5 3 10 7t9 10q4 7 5.5 13t1.5 13l32 659q0 7 -1.5 12t-5.5 8v0zM541 252
q0 -11 -7.5 -19t-18.5 -8h-6q-11 0 -19 8t-8 19v279q0 11 8 18.5t19 7.5h6q11 0 18.5 -7.5t7.5 -18.5v-279z" />
    <glyph glyph-name="uniE652" unicode="e&#x36;&#x35;&#x32;" 
d="M817 775q0 -34 -24 -58.5t-58 -24.5t-58.5 24.5t-24.5 58.5t24.5 58t58.5 24t58 -24t24 -58zM984 604q-127 1 -224 49t-163 105t-100 105t-35 50q-8 13 -22 16.5t-27 -3.5q-13 -8 -17 -22t4 -27q3 -5 38.5 -56t102.5 -111l-150 -91q-10 -7 -16 -18t-6 -23l4 -126
l-176 -86q-17 -8 -23.5 -26.5t2.5 -35.5q2 -5 6 -9.5t9 -7.5q-79 22 -129 26t-57 -12q-4 -10 10 -27t44 -38l-27 -49q-2 -5 -0.5 -10.5t6.5 -8.5q3 -1 29 10.5t47 21.5q28 -17 62 -36q34 -18 73 -37.5t83 -38.5q43 -19 89 -39q92 -37 175 -65q84 -28 148 -43.5t104 -17.5
t46 12t-24 41t-86.5 61.5t-134.5 72.5q-79 39 -171 77q-70 29 -135 52t-121 39l8 2t8 3l203 99q13 6 20 17.5t6 25.5l-1 55l117 -93l-16 -204q-2 -19 10.5 -33.5t32.5 -16.5h1.5h1.5q18 0 31.5 12.5t15.5 30.5l18 229q1 11 -4 22t-14 18l-95 76l134 81q59 -30 130.5 -49.5
t154.5 -20.5v0v0q15 0 25.5 10.5t10.5 25.5t-10.5 25.5t-25.5 10.5v0z" />
    <glyph glyph-name="uniE653" unicode="e&#x36;&#x35;&#x33;" 
d="M816 652q22 22 35 52t13 64q0 33 -13 63t-35 52q-24 -21 -38.5 -51t-14.5 -64q0 -35 14.5 -65t38.5 -51zM632 768q0 34 -14.5 64t-38.5 51q-22 -22 -34.5 -52t-12.5 -63q0 -34 12.5 -64t34.5 -52q24 21 38.5 51t14.5 65zM657 768q0 -40 -16 -74t-43 -59q21 -15 46 -24
t54 -9q28 0 53.5 9t45.5 24q-27 25 -43 59t-16 74q0 39 16 73t43 59q-20 16 -45.5 25t-53.5 9q-29 0 -54 -9t-46 -25q27 -25 43 -59t16 -73zM473 319q6 0 10 4t4 9v43h123q5 0 9 4t4 10q0 5 -4 9t-9 4h-123v63h75q6 0 9.5 4t3.5 10q0 5 -3.5 9t-9.5 4h-75v56h85q5 0 9 4
t4 10q0 5 -4 9t-9 4h-85v16q0 5 -4 9t-10 4q-5 0 -9 -4t-4 -9v-16h-78v68h103q6 0 9.5 4t3.5 9q0 6 -3.5 9.5t-9.5 3.5h-103v69h70q5 0 9 3.5t4 9.5t-4 9.5t-9 3.5h-70v4q0 5 -4 9t-9 4q-6 0 -9.5 -4t-3.5 -9v-4h-85v36q0 5 -4 9t-10 4q-5 0 -9 -4t-4 -9v-36h-33q-5 0 -9 -4
t-4 -9q0 -6 4 -9.5t9 -3.5h33v-69h-87q-6 0 -10 -3.5t-4 -9.5q0 -5 4 -9t10 -4h87v-68h-87q-6 0 -10 -4t-4 -9q0 -6 4 -10t10 -4h87v-56h-33q-5 0 -9 -4t-4 -9q0 -6 4 -10t9 -4h33v-28q0 -5 4 -9t9 -4q6 0 10 4t4 9v28h85v-63h-50q-5 0 -9 -4t-4 -9q0 -6 4 -10t9 -4h50v-43
q0 -5 3.5 -9t9.5 -4q5 0 9 4t4 9v43h78v-43q0 -5 4 -9t9 -4v0zM356 492h-85v56h85v-56zM356 575h-85v68h85v-68zM356 669h-85v69h85v-69zM382 548h78v-56h-78v56v0zM382 402v63h78v-63h-78v0zM1007 12v0v0l-16 16q-5 -12 -11.5 -27t-18.5 -27q-13 -12 -27.5 -19t-26.5 -12
l7 -7l8 -8v0v-1q12 -10 32 -5.5t38 21.5q17 18 21.5 38t-6.5 31v0zM965 45q0 2 0.5 4t1.5 4l-64 63l-39 40v0l-37 37q-6 5 -13.5 7.5t-14.5 2.5q-30 66 -40 126.5t-12 98.5q3 34 -1 70t-15 72q-8 -1 -16.5 -2t-16.5 -1t-15.5 1t-15.5 2q6 -17 10 -34t7 -33q9 -61 -5 -112.5
t-49 -86.5t-86 -49t-112 -5q-67 10 -131.5 44.5t-118.5 89.5q-51 50 -79 104t-32.5 107t13.5 103t60 92q37 37 80 55q43 19 89 19.5t93 -16.5q48 -17 94 -51q2 16 7 31.5t12 29.5q-57 38 -114 54t-111 12t-103 -27.5t-90 -63.5q-31 -31 -52 -67.5t-31 -77.5q-3 -12 -5 -25
t-3 -27q-1 -6 -1 -12v-12q0 -14 1.5 -27.5t4.5 -27.5q2 -10 4.5 -19t5.5 -19q2 -7 4.5 -14t5.5 -15q5 -10 10 -20.5t11 -21.5q3 -5 5.5 -9.5t5.5 -9.5q4 -6 7.5 -11.5t7.5 -10.5q2 -3 4.5 -6.5t5.5 -6.5q10 -13 22 -26.5t25 -26.5q20 -21 42 -39t45 -33q14 -9 28 -17.5
t29 -15.5q14 -7 27.5 -13t27.5 -11q18 -7 36.5 -12t37.5 -8q16 -3 32 -4.5t32 -1.5q8 0 15.5 0.5t14.5 0.5q38 -1 98.5 -11.5t127.5 -40.5q-1 -7 1.5 -14.5t7.5 -13.5l125 -124l3 -3t13 -12q9 2 23 10t29 23q11 10 19 21.5t12 22.5v0zM622 222q14 8 27 17.5t24 21.5
q12 12 21.5 24.5t17.5 26.5q7 -31 18 -65t27 -70q-35 17 -69.5 27.5t-65.5 17.5v0z" />
    <glyph glyph-name="uniE654" unicode="e&#x36;&#x35;&#x34;" 
d="M932 922h-840q-31 0 -53 -21.5t-22 -52.5v-705q7 -15 21 -24t31 -9q15 0 27 7t20 18q-14 40 -33 114.5t-26 213.5q-1 4 1.5 6.5t6.5 2.5q4 1 6.5 -1.5t2.5 -6.5q8 -136 26.5 -209t31.5 -114l3 -1q44 -7 56.5 6.5t12.5 27.5q-12 16 -46 71.5t-48 185.5q0 3 2.5 6t5.5 3
q4 0 7 -2t3 -6q12 -117 42.5 -170t44.5 -73q62 -17 64 10l2 27q-14 1 -28 15t-27 36l60 47h452l60 -47q-13 -22 -27 -36t-28 -15l2 -27t64 -10q14 20 44.5 73t42.5 170q0 4 3 6t7 2q3 0 5.5 -3t2.5 -6q-14 -130 -48 -185.5t-46 -71.5q0 -14 12.5 -27.5t56.5 -6.5l3 1
q13 41 31.5 114t26.5 209q0 4 2.5 6.5t6.5 1.5q4 0 6.5 -2.5t1.5 -6.5q-8 -139 -26.5 -213.5t-32.5 -114.5q8 -11 20 -18t27 -7q17 0 31 9.5t21 23.5v705q0 31 -22 52.5t-53 21.5v0zM807 292l-63 50h-464l-63 -50q-19 36 -35 81q-17 44 -29.5 83.5t-19.5 66.5l-7 26
q50 34 80.5 92t37.5 108q13 -11 31 -17.5t38 -6.5q41 0 70 25t29 61q0 -36 29.5 -61t70.5 -25t70.5 25t29.5 61q0 -36 29 -61t70 -25q20 0 38 6.5t31 17.5q7 -50 37.5 -108t80.5 -92l-7 -26q-7 -27 -19.5 -66.5t-29.5 -83.5q-16 -45 -35 -81v0zM17 71v-139h69v114h33v-114
h70v114h33v-114h69v114h33v-114h69v114h33v-114h69v114h34v-114h69v114h33v-114h69v114h33v-114h69v114h33v-114h70v114h33v-114h69v164h-990v-25z" />
    </font>
</defs>
</svg>
